M48
; DRILL file {KiCad (6.0.7)} date Sat Nov  5 19:19:27 2022
; FORMAT={-:-/ absolute / inch / decimal}
; #@! TF.CreationDate,2022-11-05T19:19:27+05:30
; #@! TF.GenerationSoftware,Kicad,Pcbnew,(6.0.7)
; #@! TF.FileFunction,Plated,1,2,PTH
FMAT,2
INCH
; #@! TA.AperFunction,Plated,PTH,ViaDrill
T1C0.0157
; #@! TA.AperFunction,Plated,PTH,ComponentDrill
T2C0.0394
; #@! TA.AperFunction,Plated,PTH,ComponentDrill
T3C0.0476
; #@! TA.AperFunction,Plated,PTH,ComponentDrill
T4C0.0512
%
G90
G05
T1
X4.623Y-4.619
X4.697Y-3.908
X4.871Y-4.547
X4.9Y-4.345
X4.902Y-4.299
X4.905Y-3.984
X4.949Y-4.584
X4.954Y-4.075
X4.992Y-4.5045
X4.996Y-4.258
X5.01Y-3.713
X5.025Y-3.386
X5.11Y-4.28
X5.12Y-3.866
X5.124Y-4.382
X5.168Y-4.504
X5.1812Y-4.1669
X5.182Y-4.126
X5.1844Y-3.941
X5.2199Y-4.1598
X5.252Y-3.904
X5.3309Y-4.3959
X5.349Y-4.588
X5.354Y-4.359
X5.416Y-3.334
X5.4178Y-4.4154
X5.448Y-4.794
X5.452Y-4.187
X5.4523Y-4.3803
X5.712Y-4.45
X5.83Y-3.908
X5.86Y-4.515
X5.905Y-4.117
X5.916Y-4.212
X5.948Y-4.498
X6.001Y-4.806
X6.018Y-4.903
X6.079Y-3.644
X6.19Y-4.58
T2
X6.188Y-4.4008
X6.188Y-4.5008
T3
X6.0562Y-3.964
T4
X5.9716Y-3.8538
X5.9716Y-4.0742
T0
M30
