%TF.GenerationSoftware,KiCad,Pcbnew,(6.0.7)*%
%TF.CreationDate,2022-11-06T12:05:56+05:30*%
%TF.ProjectId,Interface_PCB,496e7465-7266-4616-9365-5f5043422e6b,rev?*%
%TF.SameCoordinates,Original*%
%TF.FileFunction,Drillmap*%
%TF.FilePolarity,Positive*%
%FSLAX45Y45*%
G04 Gerber Fmt 4.5, Leading zero omitted, Abs format (unit mm)*
G04 Created by KiCad (PCBNEW (6.0.7)) date 2022-11-06 12:05:56*
%MOMM*%
%LPD*%
G01*
G04 APERTURE LIST*
%ADD10C,0.100000*%
%ADD11C,0.200000*%
%ADD12C,0.210000*%
G04 APERTURE END LIST*
D10*
X11709400Y-8300716D02*
G75*
G03*
X11414760Y-8600440I-40J-294644D01*
G01*
X11724640Y-13053060D02*
X15774826Y-13069726D01*
X16047722Y-8521700D02*
G75*
G03*
X15796260Y-8282940I-251462J-13040D01*
G01*
X15774826Y-13069728D02*
G75*
G03*
X16057880Y-12837160I37964J242329D01*
G01*
X11409680Y-12773660D02*
X11414760Y-8600440D01*
X11709400Y-8300720D02*
X15796260Y-8282940D01*
X16047720Y-8521700D02*
X16057880Y-12837160D01*
X11409679Y-12773660D02*
G75*
G03*
X11724640Y-13053060I283421J2270D01*
G01*
D11*
D12*
X11562991Y-12699241D02*
X11772991Y-12909241D01*
X11772991Y-12699241D02*
X11562991Y-12909241D01*
X11589160Y-8452260D02*
X11799160Y-8662260D01*
X11799160Y-8452260D02*
X11589160Y-8662260D01*
X15676020Y-8431940D02*
X15886020Y-8641940D01*
X15886020Y-8431940D02*
X15676020Y-8641940D01*
X15693031Y-12709401D02*
X15903031Y-12919401D01*
X15903031Y-12709401D02*
X15693031Y-12919401D01*
D11*
X11662299Y-13388160D02*
X11662299Y-13188160D01*
X11709918Y-13188160D01*
X11738489Y-13197684D01*
X11757537Y-13216732D01*
X11767061Y-13235779D01*
X11776585Y-13273875D01*
X11776585Y-13302446D01*
X11767061Y-13340541D01*
X11757537Y-13359589D01*
X11738489Y-13378637D01*
X11709918Y-13388160D01*
X11662299Y-13388160D01*
X11862299Y-13388160D02*
X11862299Y-13254827D01*
X11862299Y-13292922D02*
X11871823Y-13273875D01*
X11881347Y-13264351D01*
X11900394Y-13254827D01*
X11919442Y-13254827D01*
X11986108Y-13388160D02*
X11986108Y-13254827D01*
X11986108Y-13188160D02*
X11976585Y-13197684D01*
X11986108Y-13207208D01*
X11995632Y-13197684D01*
X11986108Y-13188160D01*
X11986108Y-13207208D01*
X12109918Y-13388160D02*
X12090870Y-13378637D01*
X12081347Y-13359589D01*
X12081347Y-13188160D01*
X12214680Y-13388160D02*
X12195632Y-13378637D01*
X12186108Y-13359589D01*
X12186108Y-13188160D01*
X12443251Y-13388160D02*
X12443251Y-13188160D01*
X12509918Y-13331018D01*
X12576585Y-13188160D01*
X12576585Y-13388160D01*
X12757537Y-13388160D02*
X12757537Y-13283398D01*
X12748013Y-13264351D01*
X12728966Y-13254827D01*
X12690870Y-13254827D01*
X12671823Y-13264351D01*
X12757537Y-13378637D02*
X12738489Y-13388160D01*
X12690870Y-13388160D01*
X12671823Y-13378637D01*
X12662299Y-13359589D01*
X12662299Y-13340541D01*
X12671823Y-13321494D01*
X12690870Y-13311970D01*
X12738489Y-13311970D01*
X12757537Y-13302446D01*
X12852775Y-13254827D02*
X12852775Y-13454827D01*
X12852775Y-13264351D02*
X12871823Y-13254827D01*
X12909918Y-13254827D01*
X12928966Y-13264351D01*
X12938489Y-13273875D01*
X12948013Y-13292922D01*
X12948013Y-13350065D01*
X12938489Y-13369113D01*
X12928966Y-13378637D01*
X12909918Y-13388160D01*
X12871823Y-13388160D01*
X12852775Y-13378637D01*
X13033728Y-13369113D02*
X13043251Y-13378637D01*
X13033728Y-13388160D01*
X13024204Y-13378637D01*
X13033728Y-13369113D01*
X13033728Y-13388160D01*
X13033728Y-13264351D02*
X13043251Y-13273875D01*
X13033728Y-13283398D01*
X13024204Y-13273875D01*
X13033728Y-13264351D01*
X13033728Y-13283398D01*
X11204680Y-13617684D02*
X11404680Y-13817684D01*
X11404680Y-13617684D02*
X11204680Y-13817684D01*
X11652775Y-13627208D02*
X11662299Y-13617684D01*
X11681347Y-13608160D01*
X11728966Y-13608160D01*
X11748013Y-13617684D01*
X11757537Y-13627208D01*
X11767061Y-13646256D01*
X11767061Y-13665303D01*
X11757537Y-13693875D01*
X11643251Y-13808160D01*
X11767061Y-13808160D01*
X11852775Y-13789113D02*
X11862299Y-13798637D01*
X11852775Y-13808160D01*
X11843251Y-13798637D01*
X11852775Y-13789113D01*
X11852775Y-13808160D01*
X12052775Y-13808160D02*
X11938489Y-13808160D01*
X11995632Y-13808160D02*
X11995632Y-13608160D01*
X11976585Y-13636732D01*
X11957537Y-13655779D01*
X11938489Y-13665303D01*
X12176585Y-13608160D02*
X12195632Y-13608160D01*
X12214680Y-13617684D01*
X12224204Y-13627208D01*
X12233728Y-13646256D01*
X12243251Y-13684351D01*
X12243251Y-13731970D01*
X12233728Y-13770065D01*
X12224204Y-13789113D01*
X12214680Y-13798637D01*
X12195632Y-13808160D01*
X12176585Y-13808160D01*
X12157537Y-13798637D01*
X12148013Y-13789113D01*
X12138489Y-13770065D01*
X12128966Y-13731970D01*
X12128966Y-13684351D01*
X12138489Y-13646256D01*
X12148013Y-13627208D01*
X12157537Y-13617684D01*
X12176585Y-13608160D01*
X12367061Y-13608160D02*
X12386108Y-13608160D01*
X12405156Y-13617684D01*
X12414680Y-13627208D01*
X12424204Y-13646256D01*
X12433728Y-13684351D01*
X12433728Y-13731970D01*
X12424204Y-13770065D01*
X12414680Y-13789113D01*
X12405156Y-13798637D01*
X12386108Y-13808160D01*
X12367061Y-13808160D01*
X12348013Y-13798637D01*
X12338489Y-13789113D01*
X12328966Y-13770065D01*
X12319442Y-13731970D01*
X12319442Y-13684351D01*
X12328966Y-13646256D01*
X12338489Y-13627208D01*
X12348013Y-13617684D01*
X12367061Y-13608160D01*
X12519442Y-13808160D02*
X12519442Y-13674827D01*
X12519442Y-13693875D02*
X12528966Y-13684351D01*
X12548013Y-13674827D01*
X12576585Y-13674827D01*
X12595632Y-13684351D01*
X12605156Y-13703398D01*
X12605156Y-13808160D01*
X12605156Y-13703398D02*
X12614680Y-13684351D01*
X12633728Y-13674827D01*
X12662299Y-13674827D01*
X12681347Y-13684351D01*
X12690870Y-13703398D01*
X12690870Y-13808160D01*
X12786108Y-13808160D02*
X12786108Y-13674827D01*
X12786108Y-13693875D02*
X12795632Y-13684351D01*
X12814680Y-13674827D01*
X12843251Y-13674827D01*
X12862299Y-13684351D01*
X12871823Y-13703398D01*
X12871823Y-13808160D01*
X12871823Y-13703398D02*
X12881347Y-13684351D01*
X12900394Y-13674827D01*
X12928966Y-13674827D01*
X12948013Y-13684351D01*
X12957537Y-13703398D01*
X12957537Y-13808160D01*
X13348013Y-13598637D02*
X13176585Y-13855779D01*
X13605156Y-13608160D02*
X13624204Y-13608160D01*
X13643251Y-13617684D01*
X13652775Y-13627208D01*
X13662299Y-13646256D01*
X13671823Y-13684351D01*
X13671823Y-13731970D01*
X13662299Y-13770065D01*
X13652775Y-13789113D01*
X13643251Y-13798637D01*
X13624204Y-13808160D01*
X13605156Y-13808160D01*
X13586108Y-13798637D01*
X13576585Y-13789113D01*
X13567061Y-13770065D01*
X13557537Y-13731970D01*
X13557537Y-13684351D01*
X13567061Y-13646256D01*
X13576585Y-13627208D01*
X13586108Y-13617684D01*
X13605156Y-13608160D01*
X13757537Y-13789113D02*
X13767061Y-13798637D01*
X13757537Y-13808160D01*
X13748013Y-13798637D01*
X13757537Y-13789113D01*
X13757537Y-13808160D01*
X13890870Y-13608160D02*
X13909918Y-13608160D01*
X13928966Y-13617684D01*
X13938489Y-13627208D01*
X13948013Y-13646256D01*
X13957537Y-13684351D01*
X13957537Y-13731970D01*
X13948013Y-13770065D01*
X13938489Y-13789113D01*
X13928966Y-13798637D01*
X13909918Y-13808160D01*
X13890870Y-13808160D01*
X13871823Y-13798637D01*
X13862299Y-13789113D01*
X13852775Y-13770065D01*
X13843251Y-13731970D01*
X13843251Y-13684351D01*
X13852775Y-13646256D01*
X13862299Y-13627208D01*
X13871823Y-13617684D01*
X13890870Y-13608160D01*
X14071823Y-13693875D02*
X14052775Y-13684351D01*
X14043251Y-13674827D01*
X14033728Y-13655779D01*
X14033728Y-13646256D01*
X14043251Y-13627208D01*
X14052775Y-13617684D01*
X14071823Y-13608160D01*
X14109918Y-13608160D01*
X14128966Y-13617684D01*
X14138489Y-13627208D01*
X14148013Y-13646256D01*
X14148013Y-13655779D01*
X14138489Y-13674827D01*
X14128966Y-13684351D01*
X14109918Y-13693875D01*
X14071823Y-13693875D01*
X14052775Y-13703398D01*
X14043251Y-13712922D01*
X14033728Y-13731970D01*
X14033728Y-13770065D01*
X14043251Y-13789113D01*
X14052775Y-13798637D01*
X14071823Y-13808160D01*
X14109918Y-13808160D01*
X14128966Y-13798637D01*
X14138489Y-13789113D01*
X14148013Y-13770065D01*
X14148013Y-13731970D01*
X14138489Y-13712922D01*
X14128966Y-13703398D01*
X14109918Y-13693875D01*
X14224204Y-13627208D02*
X14233728Y-13617684D01*
X14252775Y-13608160D01*
X14300394Y-13608160D01*
X14319442Y-13617684D01*
X14328966Y-13627208D01*
X14338489Y-13646256D01*
X14338489Y-13665303D01*
X14328966Y-13693875D01*
X14214680Y-13808160D01*
X14338489Y-13808160D01*
X14405156Y-13608160D02*
X14538489Y-13608160D01*
X14452775Y-13808160D01*
X14605156Y-13608160D02*
X14605156Y-13646256D01*
X14681347Y-13608160D02*
X14681347Y-13646256D01*
X14976585Y-13884351D02*
X14967061Y-13874827D01*
X14948013Y-13846256D01*
X14938489Y-13827208D01*
X14928966Y-13798637D01*
X14919442Y-13751018D01*
X14919442Y-13712922D01*
X14928966Y-13665303D01*
X14938489Y-13636732D01*
X14948013Y-13617684D01*
X14967061Y-13589113D01*
X14976585Y-13579589D01*
X15138489Y-13674827D02*
X15138489Y-13808160D01*
X15090870Y-13598637D02*
X15043251Y-13741494D01*
X15167061Y-13741494D01*
X15395632Y-13808160D02*
X15395632Y-13608160D01*
X15481347Y-13808160D02*
X15481347Y-13703398D01*
X15471823Y-13684351D01*
X15452775Y-13674827D01*
X15424204Y-13674827D01*
X15405156Y-13684351D01*
X15395632Y-13693875D01*
X15605156Y-13808160D02*
X15586108Y-13798637D01*
X15576585Y-13789113D01*
X15567061Y-13770065D01*
X15567061Y-13712922D01*
X15576585Y-13693875D01*
X15586108Y-13684351D01*
X15605156Y-13674827D01*
X15633728Y-13674827D01*
X15652775Y-13684351D01*
X15662299Y-13693875D01*
X15671823Y-13712922D01*
X15671823Y-13770065D01*
X15662299Y-13789113D01*
X15652775Y-13798637D01*
X15633728Y-13808160D01*
X15605156Y-13808160D01*
X15786108Y-13808160D02*
X15767061Y-13798637D01*
X15757537Y-13779589D01*
X15757537Y-13608160D01*
X15938489Y-13798637D02*
X15919442Y-13808160D01*
X15881347Y-13808160D01*
X15862299Y-13798637D01*
X15852775Y-13779589D01*
X15852775Y-13703398D01*
X15862299Y-13684351D01*
X15881347Y-13674827D01*
X15919442Y-13674827D01*
X15938489Y-13684351D01*
X15948013Y-13703398D01*
X15948013Y-13722446D01*
X15852775Y-13741494D01*
X16024204Y-13798637D02*
X16043251Y-13808160D01*
X16081347Y-13808160D01*
X16100394Y-13798637D01*
X16109918Y-13779589D01*
X16109918Y-13770065D01*
X16100394Y-13751018D01*
X16081347Y-13741494D01*
X16052775Y-13741494D01*
X16033728Y-13731970D01*
X16024204Y-13712922D01*
X16024204Y-13703398D01*
X16033728Y-13684351D01*
X16052775Y-13674827D01*
X16081347Y-13674827D01*
X16100394Y-13684351D01*
X16176585Y-13884351D02*
X16186108Y-13874827D01*
X16205156Y-13846256D01*
X16214680Y-13827208D01*
X16224204Y-13798637D01*
X16233728Y-13751018D01*
X16233728Y-13712922D01*
X16224204Y-13665303D01*
X16214680Y-13636732D01*
X16205156Y-13617684D01*
X16186108Y-13589113D01*
X16176585Y-13579589D01*
X16538489Y-13884351D02*
X16528966Y-13874827D01*
X16509918Y-13846256D01*
X16500394Y-13827208D01*
X16490870Y-13798637D01*
X16481347Y-13751018D01*
X16481347Y-13712922D01*
X16490870Y-13665303D01*
X16500394Y-13636732D01*
X16509918Y-13617684D01*
X16528966Y-13589113D01*
X16538489Y-13579589D01*
X16614680Y-13674827D02*
X16614680Y-13808160D01*
X16614680Y-13693875D02*
X16624204Y-13684351D01*
X16643251Y-13674827D01*
X16671823Y-13674827D01*
X16690870Y-13684351D01*
X16700394Y-13703398D01*
X16700394Y-13808160D01*
X16824204Y-13808160D02*
X16805156Y-13798637D01*
X16795632Y-13789113D01*
X16786109Y-13770065D01*
X16786109Y-13712922D01*
X16795632Y-13693875D01*
X16805156Y-13684351D01*
X16824204Y-13674827D01*
X16852775Y-13674827D01*
X16871823Y-13684351D01*
X16881347Y-13693875D01*
X16890870Y-13712922D01*
X16890870Y-13770065D01*
X16881347Y-13789113D01*
X16871823Y-13798637D01*
X16852775Y-13808160D01*
X16824204Y-13808160D01*
X16948013Y-13674827D02*
X17024204Y-13674827D01*
X16976585Y-13608160D02*
X16976585Y-13779589D01*
X16986109Y-13798637D01*
X17005156Y-13808160D01*
X17024204Y-13808160D01*
X17243251Y-13674827D02*
X17243251Y-13874827D01*
X17243251Y-13684351D02*
X17262299Y-13674827D01*
X17300394Y-13674827D01*
X17319442Y-13684351D01*
X17328966Y-13693875D01*
X17338490Y-13712922D01*
X17338490Y-13770065D01*
X17328966Y-13789113D01*
X17319442Y-13798637D01*
X17300394Y-13808160D01*
X17262299Y-13808160D01*
X17243251Y-13798637D01*
X17452775Y-13808160D02*
X17433728Y-13798637D01*
X17424204Y-13779589D01*
X17424204Y-13608160D01*
X17614680Y-13808160D02*
X17614680Y-13703398D01*
X17605156Y-13684351D01*
X17586109Y-13674827D01*
X17548013Y-13674827D01*
X17528966Y-13684351D01*
X17614680Y-13798637D02*
X17595632Y-13808160D01*
X17548013Y-13808160D01*
X17528966Y-13798637D01*
X17519442Y-13779589D01*
X17519442Y-13760541D01*
X17528966Y-13741494D01*
X17548013Y-13731970D01*
X17595632Y-13731970D01*
X17614680Y-13722446D01*
X17681347Y-13674827D02*
X17757537Y-13674827D01*
X17709918Y-13608160D02*
X17709918Y-13779589D01*
X17719442Y-13798637D01*
X17738490Y-13808160D01*
X17757537Y-13808160D01*
X17900394Y-13798637D02*
X17881347Y-13808160D01*
X17843251Y-13808160D01*
X17824204Y-13798637D01*
X17814680Y-13779589D01*
X17814680Y-13703398D01*
X17824204Y-13684351D01*
X17843251Y-13674827D01*
X17881347Y-13674827D01*
X17900394Y-13684351D01*
X17909918Y-13703398D01*
X17909918Y-13722446D01*
X17814680Y-13741494D01*
X18081347Y-13808160D02*
X18081347Y-13608160D01*
X18081347Y-13798637D02*
X18062299Y-13808160D01*
X18024204Y-13808160D01*
X18005156Y-13798637D01*
X17995632Y-13789113D01*
X17986109Y-13770065D01*
X17986109Y-13712922D01*
X17995632Y-13693875D01*
X18005156Y-13684351D01*
X18024204Y-13674827D01*
X18062299Y-13674827D01*
X18081347Y-13684351D01*
X18157537Y-13884351D02*
X18167061Y-13874827D01*
X18186109Y-13846256D01*
X18195632Y-13827208D01*
X18205156Y-13798637D01*
X18214680Y-13751018D01*
X18214680Y-13712922D01*
X18205156Y-13665303D01*
X18195632Y-13636732D01*
X18186109Y-13617684D01*
X18167061Y-13589113D01*
X18157537Y-13579589D01*
M02*
