%TF.GenerationSoftware,KiCad,Pcbnew,(6.0.7)*%
%TF.CreationDate,2022-11-05T19:20:09+05:30*%
%TF.ProjectId,Interface_PCB,496e7465-7266-4616-9365-5f5043422e6b,rev?*%
%TF.SameCoordinates,Original*%
%TF.FileFunction,Drillmap*%
%TF.FilePolarity,Positive*%
%FSLAX45Y45*%
G04 Gerber Fmt 4.5, Leading zero omitted, Abs format (unit mm)*
G04 Created by KiCad (PCBNEW (6.0.7)) date 2022-11-05 19:20:09*
%MOMM*%
%LPD*%
G01*
G04 APERTURE LIST*
%ADD10C,0.100000*%
%ADD11C,0.200000*%
%ADD12C,0.040000*%
%ADD13C,0.121000*%
%ADD14C,0.130000*%
G04 APERTURE END LIST*
D10*
X11709400Y-8300716D02*
G75*
G03*
X11414760Y-8600440I-40J-294644D01*
G01*
X11724640Y-13053060D02*
X15774826Y-13069726D01*
X16047722Y-8521700D02*
G75*
G03*
X15796260Y-8282940I-251462J-13040D01*
G01*
X15774826Y-13069728D02*
G75*
G03*
X16057880Y-12837160I37964J242329D01*
G01*
X11409680Y-12773660D02*
X11414760Y-8600440D01*
X11709400Y-8300720D02*
X15796260Y-8282940D01*
X16047720Y-8521700D02*
X16057880Y-12837160D01*
X11409679Y-12773660D02*
G75*
G03*
X11724640Y-13053060I283421J2270D01*
G01*
D11*
D12*
X11722420Y-11712260D02*
X11762420Y-11752260D01*
X11762420Y-11712260D02*
X11722420Y-11752260D01*
X11910380Y-9906320D02*
X11950380Y-9946320D01*
X11950380Y-9906320D02*
X11910380Y-9946320D01*
X12352340Y-11529380D02*
X12392340Y-11569380D01*
X12392340Y-11529380D02*
X12352340Y-11569380D01*
X12426000Y-11016300D02*
X12466000Y-11056300D01*
X12466000Y-11016300D02*
X12426000Y-11056300D01*
X12431080Y-10899460D02*
X12471080Y-10939460D01*
X12471080Y-10899460D02*
X12431080Y-10939460D01*
X12438700Y-10099360D02*
X12478700Y-10139360D01*
X12478700Y-10099360D02*
X12438700Y-10139360D01*
X12550460Y-11623360D02*
X12590460Y-11663360D01*
X12590460Y-11623360D02*
X12550460Y-11663360D01*
X12563160Y-10330500D02*
X12603160Y-10370500D01*
X12603160Y-10330500D02*
X12563160Y-10370500D01*
X12659680Y-11421490D02*
X12699680Y-11461490D01*
X12699680Y-11421490D02*
X12659680Y-11461490D01*
X12669840Y-10795320D02*
X12709840Y-10835320D01*
X12709840Y-10795320D02*
X12669840Y-10835320D01*
X12705400Y-9411020D02*
X12745400Y-9451020D01*
X12745400Y-9411020D02*
X12705400Y-9451020D01*
X12743500Y-8580440D02*
X12783500Y-8620440D01*
X12783500Y-8580440D02*
X12743500Y-8620440D01*
X12959400Y-10851200D02*
X12999400Y-10891200D01*
X12999400Y-10851200D02*
X12959400Y-10891200D01*
X12984800Y-9799640D02*
X13024800Y-9839640D01*
X13024800Y-9799640D02*
X12984800Y-9839640D01*
X12994960Y-11110280D02*
X13034960Y-11150280D01*
X13034960Y-11110280D02*
X12994960Y-11150280D01*
X13106720Y-11420160D02*
X13146720Y-11460160D01*
X13146720Y-11420160D02*
X13106720Y-11460160D01*
X13140246Y-10563826D02*
X13180246Y-10603826D01*
X13180246Y-10563826D02*
X13140246Y-10603826D01*
X13142280Y-10460040D02*
X13182280Y-10500040D01*
X13182280Y-10460040D02*
X13142280Y-10500040D01*
X13148500Y-9990140D02*
X13188500Y-10030140D01*
X13188500Y-9990140D02*
X13148500Y-10030140D01*
X13238590Y-10545977D02*
X13278590Y-10585977D01*
X13278590Y-10545977D02*
X13238590Y-10585977D01*
X13320080Y-9896160D02*
X13360080Y-9936160D01*
X13360080Y-9896160D02*
X13320080Y-9936160D01*
X13520589Y-11145689D02*
X13560589Y-11185689D01*
X13560589Y-11145689D02*
X13520589Y-11185689D01*
X13566460Y-11633520D02*
X13606460Y-11673520D01*
X13606460Y-11633520D02*
X13566460Y-11673520D01*
X13579160Y-11051860D02*
X13619160Y-11091860D01*
X13619160Y-11051860D02*
X13579160Y-11091860D01*
X13736640Y-8448360D02*
X13776640Y-8488360D01*
X13776640Y-8448360D02*
X13736640Y-8488360D01*
X13741228Y-11195048D02*
X13781228Y-11235048D01*
X13781228Y-11195048D02*
X13741228Y-11235048D01*
X13817920Y-12156760D02*
X13857920Y-12196760D01*
X13857920Y-12156760D02*
X13817920Y-12196760D01*
X13828080Y-10614980D02*
X13868080Y-10654980D01*
X13868080Y-10614980D02*
X13828080Y-10654980D01*
X13828858Y-11105978D02*
X13868858Y-11145978D01*
X13868858Y-11105978D02*
X13828858Y-11145978D01*
X14488480Y-11283000D02*
X14528480Y-11323000D01*
X14528480Y-11283000D02*
X14488480Y-11323000D01*
X14788200Y-9906320D02*
X14828200Y-9946320D01*
X14828200Y-9906320D02*
X14788200Y-9946320D01*
X14864400Y-11448100D02*
X14904400Y-11488100D01*
X14904400Y-11448100D02*
X14864400Y-11488100D01*
X14978700Y-10437180D02*
X15018700Y-10477180D01*
X15018700Y-10437180D02*
X14978700Y-10477180D01*
X15006640Y-10678480D02*
X15046640Y-10718480D01*
X15046640Y-10678480D02*
X15006640Y-10718480D01*
X15087920Y-11404920D02*
X15127920Y-11444920D01*
X15127920Y-11404920D02*
X15087920Y-11444920D01*
X15222540Y-12187240D02*
X15262540Y-12227240D01*
X15262540Y-12187240D02*
X15222540Y-12227240D01*
X15265720Y-12433620D02*
X15305720Y-12473620D01*
X15305720Y-12433620D02*
X15265720Y-12473620D01*
X15420660Y-9235760D02*
X15460660Y-9275760D01*
X15460660Y-9235760D02*
X15420660Y-9275760D01*
X15702600Y-11613200D02*
X15742600Y-11653200D01*
X15742600Y-11613200D02*
X15702600Y-11653200D01*
D10*
X15767520Y-11178040D02*
G75*
G03*
X15767520Y-11178040I-50000J0D01*
G01*
X15767520Y-11432040D02*
G75*
G03*
X15767520Y-11432040I-50000J0D01*
G01*
D13*
X15382840Y-10008060D02*
X15382840Y-10129060D01*
X15322340Y-10068560D02*
X15443340Y-10068560D01*
D14*
X15213902Y-9834522D02*
X15213902Y-9742598D01*
X15121978Y-9742598D01*
X15121978Y-9834522D01*
X15213902Y-9834522D01*
X15213902Y-10394522D02*
X15213902Y-10302598D01*
X15121978Y-10302598D01*
X15121978Y-10394522D01*
X15213902Y-10394522D01*
D11*
X11662299Y-13388160D02*
X11662299Y-13188160D01*
X11709918Y-13188160D01*
X11738489Y-13197684D01*
X11757537Y-13216732D01*
X11767061Y-13235779D01*
X11776585Y-13273875D01*
X11776585Y-13302446D01*
X11767061Y-13340541D01*
X11757537Y-13359589D01*
X11738489Y-13378637D01*
X11709918Y-13388160D01*
X11662299Y-13388160D01*
X11862299Y-13388160D02*
X11862299Y-13254827D01*
X11862299Y-13292922D02*
X11871823Y-13273875D01*
X11881347Y-13264351D01*
X11900394Y-13254827D01*
X11919442Y-13254827D01*
X11986108Y-13388160D02*
X11986108Y-13254827D01*
X11986108Y-13188160D02*
X11976585Y-13197684D01*
X11986108Y-13207208D01*
X11995632Y-13197684D01*
X11986108Y-13188160D01*
X11986108Y-13207208D01*
X12109918Y-13388160D02*
X12090870Y-13378637D01*
X12081347Y-13359589D01*
X12081347Y-13188160D01*
X12214680Y-13388160D02*
X12195632Y-13378637D01*
X12186108Y-13359589D01*
X12186108Y-13188160D01*
X12443251Y-13388160D02*
X12443251Y-13188160D01*
X12509918Y-13331018D01*
X12576585Y-13188160D01*
X12576585Y-13388160D01*
X12757537Y-13388160D02*
X12757537Y-13283398D01*
X12748013Y-13264351D01*
X12728966Y-13254827D01*
X12690870Y-13254827D01*
X12671823Y-13264351D01*
X12757537Y-13378637D02*
X12738489Y-13388160D01*
X12690870Y-13388160D01*
X12671823Y-13378637D01*
X12662299Y-13359589D01*
X12662299Y-13340541D01*
X12671823Y-13321494D01*
X12690870Y-13311970D01*
X12738489Y-13311970D01*
X12757537Y-13302446D01*
X12852775Y-13254827D02*
X12852775Y-13454827D01*
X12852775Y-13264351D02*
X12871823Y-13254827D01*
X12909918Y-13254827D01*
X12928966Y-13264351D01*
X12938489Y-13273875D01*
X12948013Y-13292922D01*
X12948013Y-13350065D01*
X12938489Y-13369113D01*
X12928966Y-13378637D01*
X12909918Y-13388160D01*
X12871823Y-13388160D01*
X12852775Y-13378637D01*
X13033728Y-13369113D02*
X13043251Y-13378637D01*
X13033728Y-13388160D01*
X13024204Y-13378637D01*
X13033728Y-13369113D01*
X13033728Y-13388160D01*
X13033728Y-13264351D02*
X13043251Y-13273875D01*
X13033728Y-13283398D01*
X13024204Y-13273875D01*
X13033728Y-13264351D01*
X13033728Y-13283398D01*
D12*
X11364680Y-13697684D02*
X11404680Y-13737684D01*
X11404680Y-13697684D02*
X11364680Y-13737684D01*
D11*
X11700394Y-13608160D02*
X11719442Y-13608160D01*
X11738489Y-13617684D01*
X11748013Y-13627208D01*
X11757537Y-13646256D01*
X11767061Y-13684351D01*
X11767061Y-13731970D01*
X11757537Y-13770065D01*
X11748013Y-13789113D01*
X11738489Y-13798637D01*
X11719442Y-13808160D01*
X11700394Y-13808160D01*
X11681347Y-13798637D01*
X11671823Y-13789113D01*
X11662299Y-13770065D01*
X11652775Y-13731970D01*
X11652775Y-13684351D01*
X11662299Y-13646256D01*
X11671823Y-13627208D01*
X11681347Y-13617684D01*
X11700394Y-13608160D01*
X11852775Y-13789113D02*
X11862299Y-13798637D01*
X11852775Y-13808160D01*
X11843251Y-13798637D01*
X11852775Y-13789113D01*
X11852775Y-13808160D01*
X12033728Y-13674827D02*
X12033728Y-13808160D01*
X11986108Y-13598637D02*
X11938489Y-13741494D01*
X12062299Y-13741494D01*
X12176585Y-13608160D02*
X12195632Y-13608160D01*
X12214680Y-13617684D01*
X12224204Y-13627208D01*
X12233728Y-13646256D01*
X12243251Y-13684351D01*
X12243251Y-13731970D01*
X12233728Y-13770065D01*
X12224204Y-13789113D01*
X12214680Y-13798637D01*
X12195632Y-13808160D01*
X12176585Y-13808160D01*
X12157537Y-13798637D01*
X12148013Y-13789113D01*
X12138489Y-13770065D01*
X12128966Y-13731970D01*
X12128966Y-13684351D01*
X12138489Y-13646256D01*
X12148013Y-13627208D01*
X12157537Y-13617684D01*
X12176585Y-13608160D01*
X12367061Y-13608160D02*
X12386108Y-13608160D01*
X12405156Y-13617684D01*
X12414680Y-13627208D01*
X12424204Y-13646256D01*
X12433728Y-13684351D01*
X12433728Y-13731970D01*
X12424204Y-13770065D01*
X12414680Y-13789113D01*
X12405156Y-13798637D01*
X12386108Y-13808160D01*
X12367061Y-13808160D01*
X12348013Y-13798637D01*
X12338489Y-13789113D01*
X12328966Y-13770065D01*
X12319442Y-13731970D01*
X12319442Y-13684351D01*
X12328966Y-13646256D01*
X12338489Y-13627208D01*
X12348013Y-13617684D01*
X12367061Y-13608160D01*
X12519442Y-13808160D02*
X12519442Y-13674827D01*
X12519442Y-13693875D02*
X12528966Y-13684351D01*
X12548013Y-13674827D01*
X12576585Y-13674827D01*
X12595632Y-13684351D01*
X12605156Y-13703398D01*
X12605156Y-13808160D01*
X12605156Y-13703398D02*
X12614680Y-13684351D01*
X12633728Y-13674827D01*
X12662299Y-13674827D01*
X12681347Y-13684351D01*
X12690870Y-13703398D01*
X12690870Y-13808160D01*
X12786108Y-13808160D02*
X12786108Y-13674827D01*
X12786108Y-13693875D02*
X12795632Y-13684351D01*
X12814680Y-13674827D01*
X12843251Y-13674827D01*
X12862299Y-13684351D01*
X12871823Y-13703398D01*
X12871823Y-13808160D01*
X12871823Y-13703398D02*
X12881347Y-13684351D01*
X12900394Y-13674827D01*
X12928966Y-13674827D01*
X12948013Y-13684351D01*
X12957537Y-13703398D01*
X12957537Y-13808160D01*
X13348013Y-13598637D02*
X13176585Y-13855779D01*
X13605156Y-13608160D02*
X13624204Y-13608160D01*
X13643251Y-13617684D01*
X13652775Y-13627208D01*
X13662299Y-13646256D01*
X13671823Y-13684351D01*
X13671823Y-13731970D01*
X13662299Y-13770065D01*
X13652775Y-13789113D01*
X13643251Y-13798637D01*
X13624204Y-13808160D01*
X13605156Y-13808160D01*
X13586108Y-13798637D01*
X13576585Y-13789113D01*
X13567061Y-13770065D01*
X13557537Y-13731970D01*
X13557537Y-13684351D01*
X13567061Y-13646256D01*
X13576585Y-13627208D01*
X13586108Y-13617684D01*
X13605156Y-13608160D01*
X13757537Y-13789113D02*
X13767061Y-13798637D01*
X13757537Y-13808160D01*
X13748013Y-13798637D01*
X13757537Y-13789113D01*
X13757537Y-13808160D01*
X13890870Y-13608160D02*
X13909918Y-13608160D01*
X13928966Y-13617684D01*
X13938489Y-13627208D01*
X13948013Y-13646256D01*
X13957537Y-13684351D01*
X13957537Y-13731970D01*
X13948013Y-13770065D01*
X13938489Y-13789113D01*
X13928966Y-13798637D01*
X13909918Y-13808160D01*
X13890870Y-13808160D01*
X13871823Y-13798637D01*
X13862299Y-13789113D01*
X13852775Y-13770065D01*
X13843251Y-13731970D01*
X13843251Y-13684351D01*
X13852775Y-13646256D01*
X13862299Y-13627208D01*
X13871823Y-13617684D01*
X13890870Y-13608160D01*
X14148013Y-13808160D02*
X14033728Y-13808160D01*
X14090870Y-13808160D02*
X14090870Y-13608160D01*
X14071823Y-13636732D01*
X14052775Y-13655779D01*
X14033728Y-13665303D01*
X14328966Y-13608160D02*
X14233728Y-13608160D01*
X14224204Y-13703398D01*
X14233728Y-13693875D01*
X14252775Y-13684351D01*
X14300394Y-13684351D01*
X14319442Y-13693875D01*
X14328966Y-13703398D01*
X14338489Y-13722446D01*
X14338489Y-13770065D01*
X14328966Y-13789113D01*
X14319442Y-13798637D01*
X14300394Y-13808160D01*
X14252775Y-13808160D01*
X14233728Y-13798637D01*
X14224204Y-13789113D01*
X14405156Y-13608160D02*
X14538489Y-13608160D01*
X14452775Y-13808160D01*
X14605156Y-13608160D02*
X14605156Y-13646256D01*
X14681347Y-13608160D02*
X14681347Y-13646256D01*
X14976585Y-13884351D02*
X14967061Y-13874827D01*
X14948013Y-13846256D01*
X14938489Y-13827208D01*
X14928966Y-13798637D01*
X14919442Y-13751018D01*
X14919442Y-13712922D01*
X14928966Y-13665303D01*
X14938489Y-13636732D01*
X14948013Y-13617684D01*
X14967061Y-13589113D01*
X14976585Y-13579589D01*
X15033728Y-13608160D02*
X15157537Y-13608160D01*
X15090870Y-13684351D01*
X15119442Y-13684351D01*
X15138489Y-13693875D01*
X15148013Y-13703398D01*
X15157537Y-13722446D01*
X15157537Y-13770065D01*
X15148013Y-13789113D01*
X15138489Y-13798637D01*
X15119442Y-13808160D01*
X15062299Y-13808160D01*
X15043251Y-13798637D01*
X15033728Y-13789113D01*
X15252775Y-13808160D02*
X15290870Y-13808160D01*
X15309918Y-13798637D01*
X15319442Y-13789113D01*
X15338489Y-13760541D01*
X15348013Y-13722446D01*
X15348013Y-13646256D01*
X15338489Y-13627208D01*
X15328966Y-13617684D01*
X15309918Y-13608160D01*
X15271823Y-13608160D01*
X15252775Y-13617684D01*
X15243251Y-13627208D01*
X15233728Y-13646256D01*
X15233728Y-13693875D01*
X15243251Y-13712922D01*
X15252775Y-13722446D01*
X15271823Y-13731970D01*
X15309918Y-13731970D01*
X15328966Y-13722446D01*
X15338489Y-13712922D01*
X15348013Y-13693875D01*
X15586108Y-13808160D02*
X15586108Y-13608160D01*
X15671823Y-13808160D02*
X15671823Y-13703398D01*
X15662299Y-13684351D01*
X15643251Y-13674827D01*
X15614680Y-13674827D01*
X15595632Y-13684351D01*
X15586108Y-13693875D01*
X15795632Y-13808160D02*
X15776585Y-13798637D01*
X15767061Y-13789113D01*
X15757537Y-13770065D01*
X15757537Y-13712922D01*
X15767061Y-13693875D01*
X15776585Y-13684351D01*
X15795632Y-13674827D01*
X15824204Y-13674827D01*
X15843251Y-13684351D01*
X15852775Y-13693875D01*
X15862299Y-13712922D01*
X15862299Y-13770065D01*
X15852775Y-13789113D01*
X15843251Y-13798637D01*
X15824204Y-13808160D01*
X15795632Y-13808160D01*
X15976585Y-13808160D02*
X15957537Y-13798637D01*
X15948013Y-13779589D01*
X15948013Y-13608160D01*
X16128966Y-13798637D02*
X16109918Y-13808160D01*
X16071823Y-13808160D01*
X16052775Y-13798637D01*
X16043251Y-13779589D01*
X16043251Y-13703398D01*
X16052775Y-13684351D01*
X16071823Y-13674827D01*
X16109918Y-13674827D01*
X16128966Y-13684351D01*
X16138489Y-13703398D01*
X16138489Y-13722446D01*
X16043251Y-13741494D01*
X16214680Y-13798637D02*
X16233728Y-13808160D01*
X16271823Y-13808160D01*
X16290870Y-13798637D01*
X16300394Y-13779589D01*
X16300394Y-13770065D01*
X16290870Y-13751018D01*
X16271823Y-13741494D01*
X16243251Y-13741494D01*
X16224204Y-13731970D01*
X16214680Y-13712922D01*
X16214680Y-13703398D01*
X16224204Y-13684351D01*
X16243251Y-13674827D01*
X16271823Y-13674827D01*
X16290870Y-13684351D01*
X16367061Y-13884351D02*
X16376585Y-13874827D01*
X16395632Y-13846256D01*
X16405156Y-13827208D01*
X16414680Y-13798637D01*
X16424204Y-13751018D01*
X16424204Y-13712922D01*
X16414680Y-13665303D01*
X16405156Y-13636732D01*
X16395632Y-13617684D01*
X16376585Y-13589113D01*
X16367061Y-13579589D01*
D10*
X11404680Y-13981684D02*
G75*
G03*
X11404680Y-13981684I-50000J0D01*
G01*
D11*
X11767061Y-14072160D02*
X11652775Y-14072160D01*
X11709918Y-14072160D02*
X11709918Y-13872160D01*
X11690870Y-13900732D01*
X11671823Y-13919779D01*
X11652775Y-13929303D01*
X11852775Y-14053113D02*
X11862299Y-14062637D01*
X11852775Y-14072160D01*
X11843251Y-14062637D01*
X11852775Y-14053113D01*
X11852775Y-14072160D01*
X11986108Y-13872160D02*
X12005156Y-13872160D01*
X12024204Y-13881684D01*
X12033728Y-13891208D01*
X12043251Y-13910256D01*
X12052775Y-13948351D01*
X12052775Y-13995970D01*
X12043251Y-14034065D01*
X12033728Y-14053113D01*
X12024204Y-14062637D01*
X12005156Y-14072160D01*
X11986108Y-14072160D01*
X11967061Y-14062637D01*
X11957537Y-14053113D01*
X11948013Y-14034065D01*
X11938489Y-13995970D01*
X11938489Y-13948351D01*
X11948013Y-13910256D01*
X11957537Y-13891208D01*
X11967061Y-13881684D01*
X11986108Y-13872160D01*
X12176585Y-13872160D02*
X12195632Y-13872160D01*
X12214680Y-13881684D01*
X12224204Y-13891208D01*
X12233728Y-13910256D01*
X12243251Y-13948351D01*
X12243251Y-13995970D01*
X12233728Y-14034065D01*
X12224204Y-14053113D01*
X12214680Y-14062637D01*
X12195632Y-14072160D01*
X12176585Y-14072160D01*
X12157537Y-14062637D01*
X12148013Y-14053113D01*
X12138489Y-14034065D01*
X12128966Y-13995970D01*
X12128966Y-13948351D01*
X12138489Y-13910256D01*
X12148013Y-13891208D01*
X12157537Y-13881684D01*
X12176585Y-13872160D01*
X12367061Y-13872160D02*
X12386108Y-13872160D01*
X12405156Y-13881684D01*
X12414680Y-13891208D01*
X12424204Y-13910256D01*
X12433728Y-13948351D01*
X12433728Y-13995970D01*
X12424204Y-14034065D01*
X12414680Y-14053113D01*
X12405156Y-14062637D01*
X12386108Y-14072160D01*
X12367061Y-14072160D01*
X12348013Y-14062637D01*
X12338489Y-14053113D01*
X12328966Y-14034065D01*
X12319442Y-13995970D01*
X12319442Y-13948351D01*
X12328966Y-13910256D01*
X12338489Y-13891208D01*
X12348013Y-13881684D01*
X12367061Y-13872160D01*
X12519442Y-14072160D02*
X12519442Y-13938827D01*
X12519442Y-13957875D02*
X12528966Y-13948351D01*
X12548013Y-13938827D01*
X12576585Y-13938827D01*
X12595632Y-13948351D01*
X12605156Y-13967398D01*
X12605156Y-14072160D01*
X12605156Y-13967398D02*
X12614680Y-13948351D01*
X12633728Y-13938827D01*
X12662299Y-13938827D01*
X12681347Y-13948351D01*
X12690870Y-13967398D01*
X12690870Y-14072160D01*
X12786108Y-14072160D02*
X12786108Y-13938827D01*
X12786108Y-13957875D02*
X12795632Y-13948351D01*
X12814680Y-13938827D01*
X12843251Y-13938827D01*
X12862299Y-13948351D01*
X12871823Y-13967398D01*
X12871823Y-14072160D01*
X12871823Y-13967398D02*
X12881347Y-13948351D01*
X12900394Y-13938827D01*
X12928966Y-13938827D01*
X12948013Y-13948351D01*
X12957537Y-13967398D01*
X12957537Y-14072160D01*
X13348013Y-13862637D02*
X13176585Y-14119779D01*
X13605156Y-13872160D02*
X13624204Y-13872160D01*
X13643251Y-13881684D01*
X13652775Y-13891208D01*
X13662299Y-13910256D01*
X13671823Y-13948351D01*
X13671823Y-13995970D01*
X13662299Y-14034065D01*
X13652775Y-14053113D01*
X13643251Y-14062637D01*
X13624204Y-14072160D01*
X13605156Y-14072160D01*
X13586108Y-14062637D01*
X13576585Y-14053113D01*
X13567061Y-14034065D01*
X13557537Y-13995970D01*
X13557537Y-13948351D01*
X13567061Y-13910256D01*
X13576585Y-13891208D01*
X13586108Y-13881684D01*
X13605156Y-13872160D01*
X13757537Y-14053113D02*
X13767061Y-14062637D01*
X13757537Y-14072160D01*
X13748013Y-14062637D01*
X13757537Y-14053113D01*
X13757537Y-14072160D01*
X13890870Y-13872160D02*
X13909918Y-13872160D01*
X13928966Y-13881684D01*
X13938489Y-13891208D01*
X13948013Y-13910256D01*
X13957537Y-13948351D01*
X13957537Y-13995970D01*
X13948013Y-14034065D01*
X13938489Y-14053113D01*
X13928966Y-14062637D01*
X13909918Y-14072160D01*
X13890870Y-14072160D01*
X13871823Y-14062637D01*
X13862299Y-14053113D01*
X13852775Y-14034065D01*
X13843251Y-13995970D01*
X13843251Y-13948351D01*
X13852775Y-13910256D01*
X13862299Y-13891208D01*
X13871823Y-13881684D01*
X13890870Y-13872160D01*
X14024204Y-13872160D02*
X14148013Y-13872160D01*
X14081347Y-13948351D01*
X14109918Y-13948351D01*
X14128966Y-13957875D01*
X14138489Y-13967398D01*
X14148013Y-13986446D01*
X14148013Y-14034065D01*
X14138489Y-14053113D01*
X14128966Y-14062637D01*
X14109918Y-14072160D01*
X14052775Y-14072160D01*
X14033728Y-14062637D01*
X14024204Y-14053113D01*
X14243251Y-14072160D02*
X14281347Y-14072160D01*
X14300394Y-14062637D01*
X14309918Y-14053113D01*
X14328966Y-14024541D01*
X14338489Y-13986446D01*
X14338489Y-13910256D01*
X14328966Y-13891208D01*
X14319442Y-13881684D01*
X14300394Y-13872160D01*
X14262299Y-13872160D01*
X14243251Y-13881684D01*
X14233728Y-13891208D01*
X14224204Y-13910256D01*
X14224204Y-13957875D01*
X14233728Y-13976922D01*
X14243251Y-13986446D01*
X14262299Y-13995970D01*
X14300394Y-13995970D01*
X14319442Y-13986446D01*
X14328966Y-13976922D01*
X14338489Y-13957875D01*
X14509918Y-13938827D02*
X14509918Y-14072160D01*
X14462299Y-13862637D02*
X14414680Y-14005494D01*
X14538489Y-14005494D01*
X14605156Y-13872160D02*
X14605156Y-13910256D01*
X14681347Y-13872160D02*
X14681347Y-13910256D01*
X14976585Y-14148351D02*
X14967061Y-14138827D01*
X14948013Y-14110256D01*
X14938489Y-14091208D01*
X14928966Y-14062637D01*
X14919442Y-14015018D01*
X14919442Y-13976922D01*
X14928966Y-13929303D01*
X14938489Y-13900732D01*
X14948013Y-13881684D01*
X14967061Y-13853113D01*
X14976585Y-13843589D01*
X15043251Y-13891208D02*
X15052775Y-13881684D01*
X15071823Y-13872160D01*
X15119442Y-13872160D01*
X15138489Y-13881684D01*
X15148013Y-13891208D01*
X15157537Y-13910256D01*
X15157537Y-13929303D01*
X15148013Y-13957875D01*
X15033728Y-14072160D01*
X15157537Y-14072160D01*
X15395632Y-14072160D02*
X15395632Y-13872160D01*
X15481347Y-14072160D02*
X15481347Y-13967398D01*
X15471823Y-13948351D01*
X15452775Y-13938827D01*
X15424204Y-13938827D01*
X15405156Y-13948351D01*
X15395632Y-13957875D01*
X15605156Y-14072160D02*
X15586108Y-14062637D01*
X15576585Y-14053113D01*
X15567061Y-14034065D01*
X15567061Y-13976922D01*
X15576585Y-13957875D01*
X15586108Y-13948351D01*
X15605156Y-13938827D01*
X15633728Y-13938827D01*
X15652775Y-13948351D01*
X15662299Y-13957875D01*
X15671823Y-13976922D01*
X15671823Y-14034065D01*
X15662299Y-14053113D01*
X15652775Y-14062637D01*
X15633728Y-14072160D01*
X15605156Y-14072160D01*
X15786108Y-14072160D02*
X15767061Y-14062637D01*
X15757537Y-14043589D01*
X15757537Y-13872160D01*
X15938489Y-14062637D02*
X15919442Y-14072160D01*
X15881347Y-14072160D01*
X15862299Y-14062637D01*
X15852775Y-14043589D01*
X15852775Y-13967398D01*
X15862299Y-13948351D01*
X15881347Y-13938827D01*
X15919442Y-13938827D01*
X15938489Y-13948351D01*
X15948013Y-13967398D01*
X15948013Y-13986446D01*
X15852775Y-14005494D01*
X16024204Y-14062637D02*
X16043251Y-14072160D01*
X16081347Y-14072160D01*
X16100394Y-14062637D01*
X16109918Y-14043589D01*
X16109918Y-14034065D01*
X16100394Y-14015018D01*
X16081347Y-14005494D01*
X16052775Y-14005494D01*
X16033728Y-13995970D01*
X16024204Y-13976922D01*
X16024204Y-13967398D01*
X16033728Y-13948351D01*
X16052775Y-13938827D01*
X16081347Y-13938827D01*
X16100394Y-13948351D01*
X16176585Y-14148351D02*
X16186108Y-14138827D01*
X16205156Y-14110256D01*
X16214680Y-14091208D01*
X16224204Y-14062637D01*
X16233728Y-14015018D01*
X16233728Y-13976922D01*
X16224204Y-13929303D01*
X16214680Y-13900732D01*
X16205156Y-13881684D01*
X16186108Y-13853113D01*
X16176585Y-13843589D01*
D13*
X11344180Y-14185184D02*
X11344180Y-14306184D01*
X11283680Y-14245684D02*
X11404680Y-14245684D01*
D11*
X11767061Y-14336160D02*
X11652775Y-14336160D01*
X11709918Y-14336160D02*
X11709918Y-14136160D01*
X11690870Y-14164732D01*
X11671823Y-14183779D01*
X11652775Y-14193303D01*
X11852775Y-14317113D02*
X11862299Y-14326637D01*
X11852775Y-14336160D01*
X11843251Y-14326637D01*
X11852775Y-14317113D01*
X11852775Y-14336160D01*
X11938489Y-14155208D02*
X11948013Y-14145684D01*
X11967061Y-14136160D01*
X12014680Y-14136160D01*
X12033728Y-14145684D01*
X12043251Y-14155208D01*
X12052775Y-14174256D01*
X12052775Y-14193303D01*
X12043251Y-14221875D01*
X11928966Y-14336160D01*
X12052775Y-14336160D01*
X12243251Y-14336160D02*
X12128966Y-14336160D01*
X12186108Y-14336160D02*
X12186108Y-14136160D01*
X12167061Y-14164732D01*
X12148013Y-14183779D01*
X12128966Y-14193303D01*
X12367061Y-14136160D02*
X12386108Y-14136160D01*
X12405156Y-14145684D01*
X12414680Y-14155208D01*
X12424204Y-14174256D01*
X12433728Y-14212351D01*
X12433728Y-14259970D01*
X12424204Y-14298065D01*
X12414680Y-14317113D01*
X12405156Y-14326637D01*
X12386108Y-14336160D01*
X12367061Y-14336160D01*
X12348013Y-14326637D01*
X12338489Y-14317113D01*
X12328966Y-14298065D01*
X12319442Y-14259970D01*
X12319442Y-14212351D01*
X12328966Y-14174256D01*
X12338489Y-14155208D01*
X12348013Y-14145684D01*
X12367061Y-14136160D01*
X12519442Y-14336160D02*
X12519442Y-14202827D01*
X12519442Y-14221875D02*
X12528966Y-14212351D01*
X12548013Y-14202827D01*
X12576585Y-14202827D01*
X12595632Y-14212351D01*
X12605156Y-14231398D01*
X12605156Y-14336160D01*
X12605156Y-14231398D02*
X12614680Y-14212351D01*
X12633728Y-14202827D01*
X12662299Y-14202827D01*
X12681347Y-14212351D01*
X12690870Y-14231398D01*
X12690870Y-14336160D01*
X12786108Y-14336160D02*
X12786108Y-14202827D01*
X12786108Y-14221875D02*
X12795632Y-14212351D01*
X12814680Y-14202827D01*
X12843251Y-14202827D01*
X12862299Y-14212351D01*
X12871823Y-14231398D01*
X12871823Y-14336160D01*
X12871823Y-14231398D02*
X12881347Y-14212351D01*
X12900394Y-14202827D01*
X12928966Y-14202827D01*
X12948013Y-14212351D01*
X12957537Y-14231398D01*
X12957537Y-14336160D01*
X13348013Y-14126637D02*
X13176585Y-14383779D01*
X13605156Y-14136160D02*
X13624204Y-14136160D01*
X13643251Y-14145684D01*
X13652775Y-14155208D01*
X13662299Y-14174256D01*
X13671823Y-14212351D01*
X13671823Y-14259970D01*
X13662299Y-14298065D01*
X13652775Y-14317113D01*
X13643251Y-14326637D01*
X13624204Y-14336160D01*
X13605156Y-14336160D01*
X13586108Y-14326637D01*
X13576585Y-14317113D01*
X13567061Y-14298065D01*
X13557537Y-14259970D01*
X13557537Y-14212351D01*
X13567061Y-14174256D01*
X13576585Y-14155208D01*
X13586108Y-14145684D01*
X13605156Y-14136160D01*
X13757537Y-14317113D02*
X13767061Y-14326637D01*
X13757537Y-14336160D01*
X13748013Y-14326637D01*
X13757537Y-14317113D01*
X13757537Y-14336160D01*
X13890870Y-14136160D02*
X13909918Y-14136160D01*
X13928966Y-14145684D01*
X13938489Y-14155208D01*
X13948013Y-14174256D01*
X13957537Y-14212351D01*
X13957537Y-14259970D01*
X13948013Y-14298065D01*
X13938489Y-14317113D01*
X13928966Y-14326637D01*
X13909918Y-14336160D01*
X13890870Y-14336160D01*
X13871823Y-14326637D01*
X13862299Y-14317113D01*
X13852775Y-14298065D01*
X13843251Y-14259970D01*
X13843251Y-14212351D01*
X13852775Y-14174256D01*
X13862299Y-14155208D01*
X13871823Y-14145684D01*
X13890870Y-14136160D01*
X14128966Y-14202827D02*
X14128966Y-14336160D01*
X14081347Y-14126637D02*
X14033728Y-14269494D01*
X14157537Y-14269494D01*
X14214680Y-14136160D02*
X14348013Y-14136160D01*
X14262299Y-14336160D01*
X14509918Y-14136160D02*
X14471823Y-14136160D01*
X14452775Y-14145684D01*
X14443251Y-14155208D01*
X14424204Y-14183779D01*
X14414680Y-14221875D01*
X14414680Y-14298065D01*
X14424204Y-14317113D01*
X14433728Y-14326637D01*
X14452775Y-14336160D01*
X14490870Y-14336160D01*
X14509918Y-14326637D01*
X14519442Y-14317113D01*
X14528966Y-14298065D01*
X14528966Y-14250446D01*
X14519442Y-14231398D01*
X14509918Y-14221875D01*
X14490870Y-14212351D01*
X14452775Y-14212351D01*
X14433728Y-14221875D01*
X14424204Y-14231398D01*
X14414680Y-14250446D01*
X14605156Y-14136160D02*
X14605156Y-14174256D01*
X14681347Y-14136160D02*
X14681347Y-14174256D01*
X14976585Y-14412351D02*
X14967061Y-14402827D01*
X14948013Y-14374256D01*
X14938489Y-14355208D01*
X14928966Y-14326637D01*
X14919442Y-14279018D01*
X14919442Y-14240922D01*
X14928966Y-14193303D01*
X14938489Y-14164732D01*
X14948013Y-14145684D01*
X14967061Y-14117113D01*
X14976585Y-14107589D01*
X15157537Y-14336160D02*
X15043251Y-14336160D01*
X15100394Y-14336160D02*
X15100394Y-14136160D01*
X15081347Y-14164732D01*
X15062299Y-14183779D01*
X15043251Y-14193303D01*
X15395632Y-14336160D02*
X15395632Y-14136160D01*
X15481347Y-14336160D02*
X15481347Y-14231398D01*
X15471823Y-14212351D01*
X15452775Y-14202827D01*
X15424204Y-14202827D01*
X15405156Y-14212351D01*
X15395632Y-14221875D01*
X15605156Y-14336160D02*
X15586108Y-14326637D01*
X15576585Y-14317113D01*
X15567061Y-14298065D01*
X15567061Y-14240922D01*
X15576585Y-14221875D01*
X15586108Y-14212351D01*
X15605156Y-14202827D01*
X15633728Y-14202827D01*
X15652775Y-14212351D01*
X15662299Y-14221875D01*
X15671823Y-14240922D01*
X15671823Y-14298065D01*
X15662299Y-14317113D01*
X15652775Y-14326637D01*
X15633728Y-14336160D01*
X15605156Y-14336160D01*
X15786108Y-14336160D02*
X15767061Y-14326637D01*
X15757537Y-14307589D01*
X15757537Y-14136160D01*
X15938489Y-14326637D02*
X15919442Y-14336160D01*
X15881347Y-14336160D01*
X15862299Y-14326637D01*
X15852775Y-14307589D01*
X15852775Y-14231398D01*
X15862299Y-14212351D01*
X15881347Y-14202827D01*
X15919442Y-14202827D01*
X15938489Y-14212351D01*
X15948013Y-14231398D01*
X15948013Y-14250446D01*
X15852775Y-14269494D01*
X16014680Y-14412351D02*
X16024204Y-14402827D01*
X16043251Y-14374256D01*
X16052775Y-14355208D01*
X16062299Y-14326637D01*
X16071823Y-14279018D01*
X16071823Y-14240922D01*
X16062299Y-14193303D01*
X16052775Y-14164732D01*
X16043251Y-14145684D01*
X16024204Y-14117113D01*
X16014680Y-14107589D01*
D14*
X11385642Y-14555647D02*
X11385642Y-14463722D01*
X11293718Y-14463722D01*
X11293718Y-14555647D01*
X11385642Y-14555647D01*
D11*
X11767061Y-14600160D02*
X11652775Y-14600160D01*
X11709918Y-14600160D02*
X11709918Y-14400160D01*
X11690870Y-14428732D01*
X11671823Y-14447779D01*
X11652775Y-14457303D01*
X11852775Y-14581113D02*
X11862299Y-14590637D01*
X11852775Y-14600160D01*
X11843251Y-14590637D01*
X11852775Y-14581113D01*
X11852775Y-14600160D01*
X11928966Y-14400160D02*
X12052775Y-14400160D01*
X11986108Y-14476351D01*
X12014680Y-14476351D01*
X12033728Y-14485875D01*
X12043251Y-14495398D01*
X12052775Y-14514446D01*
X12052775Y-14562065D01*
X12043251Y-14581113D01*
X12033728Y-14590637D01*
X12014680Y-14600160D01*
X11957537Y-14600160D01*
X11938489Y-14590637D01*
X11928966Y-14581113D01*
X12176585Y-14400160D02*
X12195632Y-14400160D01*
X12214680Y-14409684D01*
X12224204Y-14419208D01*
X12233728Y-14438256D01*
X12243251Y-14476351D01*
X12243251Y-14523970D01*
X12233728Y-14562065D01*
X12224204Y-14581113D01*
X12214680Y-14590637D01*
X12195632Y-14600160D01*
X12176585Y-14600160D01*
X12157537Y-14590637D01*
X12148013Y-14581113D01*
X12138489Y-14562065D01*
X12128966Y-14523970D01*
X12128966Y-14476351D01*
X12138489Y-14438256D01*
X12148013Y-14419208D01*
X12157537Y-14409684D01*
X12176585Y-14400160D01*
X12367061Y-14400160D02*
X12386108Y-14400160D01*
X12405156Y-14409684D01*
X12414680Y-14419208D01*
X12424204Y-14438256D01*
X12433728Y-14476351D01*
X12433728Y-14523970D01*
X12424204Y-14562065D01*
X12414680Y-14581113D01*
X12405156Y-14590637D01*
X12386108Y-14600160D01*
X12367061Y-14600160D01*
X12348013Y-14590637D01*
X12338489Y-14581113D01*
X12328966Y-14562065D01*
X12319442Y-14523970D01*
X12319442Y-14476351D01*
X12328966Y-14438256D01*
X12338489Y-14419208D01*
X12348013Y-14409684D01*
X12367061Y-14400160D01*
X12519442Y-14600160D02*
X12519442Y-14466827D01*
X12519442Y-14485875D02*
X12528966Y-14476351D01*
X12548013Y-14466827D01*
X12576585Y-14466827D01*
X12595632Y-14476351D01*
X12605156Y-14495398D01*
X12605156Y-14600160D01*
X12605156Y-14495398D02*
X12614680Y-14476351D01*
X12633728Y-14466827D01*
X12662299Y-14466827D01*
X12681347Y-14476351D01*
X12690870Y-14495398D01*
X12690870Y-14600160D01*
X12786108Y-14600160D02*
X12786108Y-14466827D01*
X12786108Y-14485875D02*
X12795632Y-14476351D01*
X12814680Y-14466827D01*
X12843251Y-14466827D01*
X12862299Y-14476351D01*
X12871823Y-14495398D01*
X12871823Y-14600160D01*
X12871823Y-14495398D02*
X12881347Y-14476351D01*
X12900394Y-14466827D01*
X12928966Y-14466827D01*
X12948013Y-14476351D01*
X12957537Y-14495398D01*
X12957537Y-14600160D01*
X13348013Y-14390637D02*
X13176585Y-14647779D01*
X13605156Y-14400160D02*
X13624204Y-14400160D01*
X13643251Y-14409684D01*
X13652775Y-14419208D01*
X13662299Y-14438256D01*
X13671823Y-14476351D01*
X13671823Y-14523970D01*
X13662299Y-14562065D01*
X13652775Y-14581113D01*
X13643251Y-14590637D01*
X13624204Y-14600160D01*
X13605156Y-14600160D01*
X13586108Y-14590637D01*
X13576585Y-14581113D01*
X13567061Y-14562065D01*
X13557537Y-14523970D01*
X13557537Y-14476351D01*
X13567061Y-14438256D01*
X13576585Y-14419208D01*
X13586108Y-14409684D01*
X13605156Y-14400160D01*
X13757537Y-14581113D02*
X13767061Y-14590637D01*
X13757537Y-14600160D01*
X13748013Y-14590637D01*
X13757537Y-14581113D01*
X13757537Y-14600160D01*
X13890870Y-14400160D02*
X13909918Y-14400160D01*
X13928966Y-14409684D01*
X13938489Y-14419208D01*
X13948013Y-14438256D01*
X13957537Y-14476351D01*
X13957537Y-14523970D01*
X13948013Y-14562065D01*
X13938489Y-14581113D01*
X13928966Y-14590637D01*
X13909918Y-14600160D01*
X13890870Y-14600160D01*
X13871823Y-14590637D01*
X13862299Y-14581113D01*
X13852775Y-14562065D01*
X13843251Y-14523970D01*
X13843251Y-14476351D01*
X13852775Y-14438256D01*
X13862299Y-14419208D01*
X13871823Y-14409684D01*
X13890870Y-14400160D01*
X14138489Y-14400160D02*
X14043251Y-14400160D01*
X14033728Y-14495398D01*
X14043251Y-14485875D01*
X14062299Y-14476351D01*
X14109918Y-14476351D01*
X14128966Y-14485875D01*
X14138489Y-14495398D01*
X14148013Y-14514446D01*
X14148013Y-14562065D01*
X14138489Y-14581113D01*
X14128966Y-14590637D01*
X14109918Y-14600160D01*
X14062299Y-14600160D01*
X14043251Y-14590637D01*
X14033728Y-14581113D01*
X14338489Y-14600160D02*
X14224204Y-14600160D01*
X14281347Y-14600160D02*
X14281347Y-14400160D01*
X14262299Y-14428732D01*
X14243251Y-14447779D01*
X14224204Y-14457303D01*
X14414680Y-14419208D02*
X14424204Y-14409684D01*
X14443251Y-14400160D01*
X14490870Y-14400160D01*
X14509918Y-14409684D01*
X14519442Y-14419208D01*
X14528966Y-14438256D01*
X14528966Y-14457303D01*
X14519442Y-14485875D01*
X14405156Y-14600160D01*
X14528966Y-14600160D01*
X14605156Y-14400160D02*
X14605156Y-14438256D01*
X14681347Y-14400160D02*
X14681347Y-14438256D01*
X14976585Y-14676351D02*
X14967061Y-14666827D01*
X14948013Y-14638256D01*
X14938489Y-14619208D01*
X14928966Y-14590637D01*
X14919442Y-14543018D01*
X14919442Y-14504922D01*
X14928966Y-14457303D01*
X14938489Y-14428732D01*
X14948013Y-14409684D01*
X14967061Y-14381113D01*
X14976585Y-14371589D01*
X15043251Y-14419208D02*
X15052775Y-14409684D01*
X15071823Y-14400160D01*
X15119442Y-14400160D01*
X15138489Y-14409684D01*
X15148013Y-14419208D01*
X15157537Y-14438256D01*
X15157537Y-14457303D01*
X15148013Y-14485875D01*
X15033728Y-14600160D01*
X15157537Y-14600160D01*
X15395632Y-14600160D02*
X15395632Y-14400160D01*
X15481347Y-14600160D02*
X15481347Y-14495398D01*
X15471823Y-14476351D01*
X15452775Y-14466827D01*
X15424204Y-14466827D01*
X15405156Y-14476351D01*
X15395632Y-14485875D01*
X15605156Y-14600160D02*
X15586108Y-14590637D01*
X15576585Y-14581113D01*
X15567061Y-14562065D01*
X15567061Y-14504922D01*
X15576585Y-14485875D01*
X15586108Y-14476351D01*
X15605156Y-14466827D01*
X15633728Y-14466827D01*
X15652775Y-14476351D01*
X15662299Y-14485875D01*
X15671823Y-14504922D01*
X15671823Y-14562065D01*
X15662299Y-14581113D01*
X15652775Y-14590637D01*
X15633728Y-14600160D01*
X15605156Y-14600160D01*
X15786108Y-14600160D02*
X15767061Y-14590637D01*
X15757537Y-14571589D01*
X15757537Y-14400160D01*
X15938489Y-14590637D02*
X15919442Y-14600160D01*
X15881347Y-14600160D01*
X15862299Y-14590637D01*
X15852775Y-14571589D01*
X15852775Y-14495398D01*
X15862299Y-14476351D01*
X15881347Y-14466827D01*
X15919442Y-14466827D01*
X15938489Y-14476351D01*
X15948013Y-14495398D01*
X15948013Y-14514446D01*
X15852775Y-14533494D01*
X16024204Y-14590637D02*
X16043251Y-14600160D01*
X16081347Y-14600160D01*
X16100394Y-14590637D01*
X16109918Y-14571589D01*
X16109918Y-14562065D01*
X16100394Y-14543018D01*
X16081347Y-14533494D01*
X16052775Y-14533494D01*
X16033728Y-14523970D01*
X16024204Y-14504922D01*
X16024204Y-14495398D01*
X16033728Y-14476351D01*
X16052775Y-14466827D01*
X16081347Y-14466827D01*
X16100394Y-14476351D01*
X16176585Y-14676351D02*
X16186108Y-14666827D01*
X16205156Y-14638256D01*
X16214680Y-14619208D01*
X16224204Y-14590637D01*
X16233728Y-14543018D01*
X16233728Y-14504922D01*
X16224204Y-14457303D01*
X16214680Y-14428732D01*
X16205156Y-14409684D01*
X16186108Y-14381113D01*
X16176585Y-14371589D01*
M02*
