%TF.GenerationSoftware,KiCad,Pcbnew,(6.0.7)*%
%TF.CreationDate,2022-11-05T01:20:28+05:30*%
%TF.ProjectId,Interface_PCB,496e7465-7266-4616-9365-5f5043422e6b,rev?*%
%TF.SameCoordinates,Original*%
%TF.FileFunction,Legend,Bot*%
%TF.FilePolarity,Positive*%
%FSLAX46Y46*%
G04 Gerber Fmt 4.6, Leading zero omitted, Abs format (unit mm)*
G04 Created by KiCad (PCBNEW (6.0.7)) date 2022-11-05 01:20:28*
%MOMM*%
%LPD*%
G01*
G04 APERTURE LIST*
%TA.AperFunction,Profile*%
%ADD10C,0.100000*%
%TD*%
%ADD11C,0.150000*%
G04 APERTURE END LIST*
D10*
X117094000Y-83007162D02*
G75*
G03*
X114147600Y-86004400I-400J-2946438D01*
G01*
X117246400Y-130530600D02*
X157748260Y-130697260D01*
X160477221Y-85216999D02*
G75*
G03*
X157962600Y-82829400I-2514621J-130401D01*
G01*
X157748256Y-130697285D02*
G75*
G03*
X160578800Y-128371600I379644J2423285D01*
G01*
X114096800Y-127736600D02*
X114147600Y-86004400D01*
X117094000Y-83007200D02*
X157962600Y-82829400D01*
X160477200Y-85217000D02*
X160578800Y-128371600D01*
X114096788Y-127736600D02*
G75*
G03*
X117246400Y-130530600I2834212J22700D01*
G01*
D11*
X127650380Y-127536380D02*
X127650380Y-126536380D01*
X127269428Y-126536380D01*
X127174190Y-126584000D01*
X127126571Y-126631619D01*
X127078952Y-126726857D01*
X127078952Y-126869714D01*
X127126571Y-126964952D01*
X127174190Y-127012571D01*
X127269428Y-127060190D01*
X127650380Y-127060190D01*
X126650380Y-127441142D02*
X126602761Y-127488761D01*
X126650380Y-127536380D01*
X126698000Y-127488761D01*
X126650380Y-127441142D01*
X126650380Y-127536380D01*
X125459904Y-127250666D02*
X124983714Y-127250666D01*
X125555142Y-127536380D02*
X125221809Y-126536380D01*
X124888476Y-127536380D01*
X124221809Y-127012571D02*
X124078952Y-127060190D01*
X124031333Y-127107809D01*
X123983714Y-127203047D01*
X123983714Y-127345904D01*
X124031333Y-127441142D01*
X124078952Y-127488761D01*
X124174190Y-127536380D01*
X124555142Y-127536380D01*
X124555142Y-126536380D01*
X124221809Y-126536380D01*
X124126571Y-126584000D01*
X124078952Y-126631619D01*
X124031333Y-126726857D01*
X124031333Y-126822095D01*
X124078952Y-126917333D01*
X124126571Y-126964952D01*
X124221809Y-127012571D01*
X124555142Y-127012571D01*
X123555142Y-127536380D02*
X123555142Y-126536380D01*
X123555142Y-127012571D02*
X122983714Y-127012571D01*
X122983714Y-127536380D02*
X122983714Y-126536380D01*
X122507523Y-127536380D02*
X122507523Y-126536380D01*
X122031333Y-127536380D02*
X122031333Y-126536380D01*
X121459904Y-127536380D01*
X121459904Y-126536380D01*
X121031333Y-127250666D02*
X120555142Y-127250666D01*
X121126571Y-127536380D02*
X120793238Y-126536380D01*
X120459904Y-127536380D01*
X120269428Y-126536380D02*
X119936095Y-127536380D01*
X119602761Y-126536380D01*
X127864666Y-129146380D02*
X127864666Y-128146380D01*
X127531333Y-128860666D01*
X127198000Y-128146380D01*
X127198000Y-129146380D01*
X126721809Y-129051142D02*
X126674190Y-129098761D01*
X126721809Y-129146380D01*
X126769428Y-129098761D01*
X126721809Y-129051142D01*
X126721809Y-129146380D01*
X124912285Y-129051142D02*
X124959904Y-129098761D01*
X125102761Y-129146380D01*
X125198000Y-129146380D01*
X125340857Y-129098761D01*
X125436095Y-129003523D01*
X125483714Y-128908285D01*
X125531333Y-128717809D01*
X125531333Y-128574952D01*
X125483714Y-128384476D01*
X125436095Y-128289238D01*
X125340857Y-128194000D01*
X125198000Y-128146380D01*
X125102761Y-128146380D01*
X124959904Y-128194000D01*
X124912285Y-128241619D01*
X124483714Y-129146380D02*
X124483714Y-128146380D01*
X124483714Y-128622571D02*
X123912285Y-128622571D01*
X123912285Y-129146380D02*
X123912285Y-128146380D01*
X123436095Y-129146380D02*
X123436095Y-128146380D01*
X122959904Y-129146380D02*
X122959904Y-128146380D01*
X122388476Y-129146380D01*
X122388476Y-128146380D01*
X121912285Y-129146380D02*
X121912285Y-128146380D01*
X121578952Y-128860666D01*
X121245619Y-128146380D01*
X121245619Y-129146380D01*
X120817047Y-128860666D02*
X120340857Y-128860666D01*
X120912285Y-129146380D02*
X120578952Y-128146380D01*
X120245619Y-129146380D01*
X119721809Y-128670190D02*
X119721809Y-129146380D01*
X120055142Y-128146380D02*
X119721809Y-128670190D01*
X119388476Y-128146380D01*
M02*
