%TF.GenerationSoftware,KiCad,Pcbnew,(6.0.7)*%
%TF.CreationDate,2022-11-05T19:19:08+05:30*%
%TF.ProjectId,Interface_PCB,496e7465-7266-4616-9365-5f5043422e6b,rev?*%
%TF.SameCoordinates,Original*%
%TF.FileFunction,Copper,L2,Bot*%
%TF.FilePolarity,Positive*%
%FSLAX46Y46*%
G04 Gerber Fmt 4.6, Leading zero omitted, Abs format (unit mm)*
G04 Created by KiCad (PCBNEW (6.0.7)) date 2022-11-05 19:19:08*
%MOMM*%
%LPD*%
G01*
G04 APERTURE LIST*
%TA.AperFunction,Profile*%
%ADD10C,0.100000*%
%TD*%
%TA.AperFunction,ComponentPad*%
%ADD11R,1.700000X1.700000*%
%TD*%
%TA.AperFunction,ComponentPad*%
%ADD12O,1.700000X1.700000*%
%TD*%
%TA.AperFunction,ComponentPad*%
%ADD13C,1.950000*%
%TD*%
%TA.AperFunction,ComponentPad*%
%ADD14C,1.815000*%
%TD*%
%TA.AperFunction,ViaPad*%
%ADD15C,0.800000*%
%TD*%
%TA.AperFunction,Conductor*%
%ADD16C,0.250000*%
%TD*%
G04 APERTURE END LIST*
D10*
X117094000Y-83007162D02*
G75*
G03*
X114147600Y-86004400I-400J-2946438D01*
G01*
X117246400Y-130530600D02*
X157748260Y-130697260D01*
X160477221Y-85216999D02*
G75*
G03*
X157962600Y-82829400I-2514621J-130401D01*
G01*
X157748256Y-130697285D02*
G75*
G03*
X160578800Y-128371600I379644J2423285D01*
G01*
X114096800Y-127736600D02*
X114147600Y-86004400D01*
X117094000Y-83007200D02*
X157962600Y-82829400D01*
X160477200Y-85217000D02*
X160578800Y-128371600D01*
X114096788Y-127736600D02*
G75*
G03*
X117246400Y-130530600I2834212J22700D01*
G01*
D11*
%TO.P,VEXT,1,Pin_1*%
%TO.N,Net-(J9-Pad1)*%
X157175200Y-111780400D03*
D12*
%TO.P,VEXT,2,Pin_2*%
%TO.N,GND*%
X157175200Y-114320400D03*
%TD*%
D13*
%TO.P,USB,MH1*%
%TO.N,N/C*%
X151679400Y-103485600D03*
%TO.P,USB,MH2*%
X151679400Y-97885600D03*
D14*
%TO.P,USB,MH3*%
X153828400Y-100685600D03*
%TD*%
D15*
%TO.N,GND*%
X157226000Y-116332000D03*
X152425400Y-122072400D03*
X127635000Y-86004400D03*
X154406600Y-92557600D03*
X148082000Y-99263200D03*
X125831600Y-103505000D03*
X148844000Y-114681000D03*
X119303800Y-99263200D03*
X133400800Y-99161600D03*
X138379200Y-121767600D03*
X127254000Y-94310200D03*
X124587000Y-101193600D03*
X132585896Y-105659772D03*
X145084800Y-113030000D03*
X138480800Y-106349800D03*
X126898400Y-108153200D03*
X151079200Y-114249200D03*
X117424200Y-117322600D03*
X137566400Y-84683600D03*
X131622800Y-104800400D03*
X152857200Y-124536200D03*
%TO.N,LSE_OUT*%
X131685000Y-100101400D03*
X130048000Y-98196400D03*
%TO.N,VBUS*%
X149987000Y-104571800D03*
X150266400Y-106984800D03*
%TO.N,I2C2_SCL*%
X126796800Y-114414900D03*
X131267200Y-114401600D03*
%TO.N,USART2_RX*%
X131602461Y-105838263D03*
X124510800Y-109194600D03*
%TO.N,SPI1_MOSI*%
X138488584Y-111259784D03*
X135991600Y-110718600D03*
%TO.N,SPI1_MISO*%
X135405887Y-111656888D03*
X137612283Y-112150484D03*
%TO.N,I2C2_SDA*%
X125704600Y-116433600D03*
X123723400Y-115493800D03*
%TO.N,USART2_TX*%
X124460000Y-110363000D03*
X129794000Y-108712000D03*
%TO.N,SPI1_CLK*%
X130149600Y-111302800D03*
X135864600Y-116535200D03*
%TD*%
D16*
%TO.N,LSE_OUT*%
X131685000Y-100101400D02*
X131685000Y-99833400D01*
X131685000Y-99833400D02*
X130048000Y-98196400D01*
%TO.N,VBUS*%
X150266400Y-106984800D02*
X149987000Y-106705400D01*
X149987000Y-106705400D02*
X149987000Y-104571800D01*
%TO.N,I2C2_SCL*%
X126796800Y-114414900D02*
X131253900Y-114414900D01*
X131253900Y-114414900D02*
X131267200Y-114401600D01*
%TO.N,USART2_RX*%
X131602461Y-105838263D02*
X130481324Y-106959400D01*
X130481324Y-106959400D02*
X126746000Y-106959400D01*
X126746000Y-106959400D02*
X124510800Y-109194600D01*
%TO.N,SPI1_MOSI*%
X136698984Y-111425984D02*
X135991600Y-110718600D01*
X138488584Y-111259784D02*
X138322384Y-111425984D01*
X138322384Y-111425984D02*
X136698984Y-111425984D01*
%TO.N,SPI1_MISO*%
X135899483Y-112150484D02*
X135405887Y-111656888D01*
X137612283Y-112150484D02*
X135899483Y-112150484D01*
%TO.N,I2C2_SDA*%
X123723400Y-115493800D02*
X124764800Y-115493800D01*
X124764800Y-115493800D02*
X125704600Y-116433600D01*
%TO.N,USART2_TX*%
X124460000Y-110363000D02*
X128143000Y-110363000D01*
X128143000Y-110363000D02*
X129794000Y-108712000D01*
%TO.N,SPI1_CLK*%
X130149600Y-111302800D02*
X130149600Y-112258695D01*
X134426105Y-116535200D02*
X135864600Y-116535200D01*
X130149600Y-112258695D02*
X134426105Y-116535200D01*
%TD*%
%TA.AperFunction,Conductor*%
%TO.N,GND*%
G36*
X157943005Y-83084989D02*
G01*
X157957788Y-83087929D01*
X157962600Y-83088886D01*
X157975235Y-83086373D01*
X157988097Y-83085516D01*
X158245206Y-83101810D01*
X158251448Y-83102605D01*
X158526443Y-83155456D01*
X158532530Y-83157031D01*
X158798651Y-83244175D01*
X158804494Y-83246507D01*
X159057478Y-83366546D01*
X159062980Y-83369597D01*
X159298794Y-83520620D01*
X159303866Y-83524340D01*
X159316979Y-83535301D01*
X159518718Y-83703918D01*
X159523286Y-83708256D01*
X159713747Y-83913518D01*
X159717732Y-83918397D01*
X159875620Y-84138888D01*
X159880761Y-84146068D01*
X159884097Y-84151412D01*
X160017073Y-84397833D01*
X160019708Y-84403555D01*
X160120513Y-84664793D01*
X160122404Y-84670799D01*
X160157063Y-84811401D01*
X160189425Y-84942688D01*
X160190542Y-84948888D01*
X160220119Y-85204713D01*
X160219930Y-85217604D01*
X160218062Y-85230438D01*
X160219266Y-85235190D01*
X160219266Y-85235191D01*
X160221264Y-85243078D01*
X160222789Y-85255191D01*
X160297971Y-117188454D01*
X160323759Y-128141842D01*
X160324215Y-128335739D01*
X160322833Y-128347506D01*
X160319520Y-128361275D01*
X160320285Y-128366123D01*
X160320285Y-128366125D01*
X160321503Y-128373844D01*
X160321839Y-128386809D01*
X160295067Y-128641671D01*
X160293978Y-128648034D01*
X160258461Y-128796784D01*
X160229297Y-128918924D01*
X160227394Y-128925093D01*
X160128212Y-129185344D01*
X160125527Y-129191214D01*
X159993515Y-129436445D01*
X159990093Y-129441919D01*
X159827470Y-129668008D01*
X159823369Y-129672994D01*
X159632857Y-129876155D01*
X159628145Y-129880568D01*
X159412954Y-130057377D01*
X159407719Y-130061137D01*
X159312141Y-130120804D01*
X159171467Y-130208622D01*
X159165780Y-130211679D01*
X158912437Y-130327362D01*
X158906404Y-130329657D01*
X158793397Y-130364445D01*
X158640215Y-130411600D01*
X158633946Y-130413092D01*
X158359396Y-130459911D01*
X158352993Y-130460580D01*
X158187688Y-130467060D01*
X158074686Y-130471490D01*
X158068232Y-130471324D01*
X157813110Y-130448162D01*
X157800459Y-130445318D01*
X157788422Y-130440901D01*
X157770374Y-130441640D01*
X157744709Y-130442691D01*
X157742466Y-130442733D01*
X117259729Y-130276152D01*
X117255715Y-130275973D01*
X117222410Y-130273141D01*
X117222408Y-130273141D01*
X117217525Y-130272726D01*
X117204913Y-130276737D01*
X117192406Y-130279009D01*
X116913126Y-130293465D01*
X116907179Y-130293417D01*
X116650588Y-130275973D01*
X116605490Y-130272907D01*
X116599589Y-130272149D01*
X116374609Y-130229471D01*
X116302516Y-130215795D01*
X116296745Y-130214339D01*
X116008501Y-130122939D01*
X116002945Y-130120804D01*
X115727668Y-129995668D01*
X115722407Y-129992885D01*
X115464038Y-129835808D01*
X115459146Y-129832418D01*
X115221355Y-129645632D01*
X115216902Y-129641682D01*
X115003096Y-129427860D01*
X114999146Y-129423407D01*
X114884992Y-129278060D01*
X114812371Y-129185595D01*
X114808984Y-129180706D01*
X114789337Y-129148383D01*
X114688984Y-128983290D01*
X114651923Y-128922320D01*
X114649141Y-128917059D01*
X114633367Y-128882352D01*
X114524025Y-128641772D01*
X114521894Y-128636226D01*
X114430516Y-128347977D01*
X114429060Y-128342206D01*
X114372727Y-128045129D01*
X114372378Y-128042414D01*
X115370426Y-128042414D01*
X115390320Y-128269803D01*
X115449397Y-128490284D01*
X115545863Y-128697155D01*
X115676787Y-128884133D01*
X115838190Y-129045536D01*
X116025168Y-129176460D01*
X116232039Y-129272926D01*
X116234141Y-129273489D01*
X116234146Y-129273491D01*
X116373501Y-129310830D01*
X116452520Y-129332003D01*
X116622953Y-129346914D01*
X116736865Y-129346914D01*
X116907298Y-129332003D01*
X116986317Y-129310830D01*
X117125672Y-129273491D01*
X117125677Y-129273489D01*
X117127779Y-129272926D01*
X117334650Y-129176460D01*
X117521628Y-129045536D01*
X117683031Y-128884133D01*
X117813955Y-128697156D01*
X117910421Y-128490284D01*
X117969498Y-128269803D01*
X117980503Y-128144014D01*
X156670826Y-128144014D01*
X156690720Y-128371403D01*
X156749797Y-128591884D01*
X156846263Y-128798755D01*
X156977187Y-128985733D01*
X157138590Y-129147136D01*
X157325568Y-129278060D01*
X157532439Y-129374526D01*
X157534541Y-129375089D01*
X157534546Y-129375091D01*
X157673901Y-129412430D01*
X157752920Y-129433603D01*
X157923353Y-129448514D01*
X158037265Y-129448514D01*
X158207698Y-129433603D01*
X158286717Y-129412430D01*
X158426072Y-129375091D01*
X158426077Y-129375089D01*
X158428179Y-129374526D01*
X158635050Y-129278060D01*
X158822028Y-129147136D01*
X158983431Y-128985733D01*
X159114355Y-128798756D01*
X159210821Y-128591884D01*
X159269898Y-128371403D01*
X159289792Y-128144014D01*
X159269898Y-127916625D01*
X159222218Y-127738678D01*
X159211386Y-127698251D01*
X159211384Y-127698246D01*
X159210821Y-127696144D01*
X159114355Y-127489273D01*
X158983431Y-127302295D01*
X158822028Y-127140892D01*
X158635050Y-127009968D01*
X158428179Y-126913502D01*
X158426077Y-126912939D01*
X158426072Y-126912937D01*
X158286717Y-126875598D01*
X158207698Y-126854425D01*
X158037265Y-126839514D01*
X157923353Y-126839514D01*
X157752920Y-126854425D01*
X157673901Y-126875598D01*
X157534546Y-126912937D01*
X157534541Y-126912939D01*
X157532439Y-126913502D01*
X157325568Y-127009968D01*
X157138590Y-127140892D01*
X156977187Y-127302295D01*
X156846263Y-127489272D01*
X156749797Y-127696144D01*
X156749234Y-127698246D01*
X156749232Y-127698251D01*
X156738400Y-127738678D01*
X156690720Y-127916625D01*
X156670826Y-128144014D01*
X117980503Y-128144014D01*
X117989392Y-128042414D01*
X117969498Y-127815025D01*
X117942001Y-127712405D01*
X117910986Y-127596651D01*
X117910984Y-127596646D01*
X117910421Y-127594544D01*
X117813955Y-127387673D01*
X117683031Y-127200695D01*
X117521628Y-127039292D01*
X117334650Y-126908368D01*
X117127779Y-126811902D01*
X117125677Y-126811339D01*
X117125672Y-126811337D01*
X116986317Y-126773998D01*
X116907298Y-126752825D01*
X116736865Y-126737914D01*
X116622953Y-126737914D01*
X116452520Y-126752825D01*
X116373501Y-126773998D01*
X116234146Y-126811337D01*
X116234141Y-126811339D01*
X116232039Y-126811902D01*
X116025168Y-126908368D01*
X115838190Y-127039292D01*
X115676787Y-127200695D01*
X115545863Y-127387672D01*
X115449397Y-127594544D01*
X115448834Y-127596646D01*
X115448832Y-127596651D01*
X115417817Y-127712405D01*
X115390320Y-127815025D01*
X115370426Y-128042414D01*
X114372378Y-128042414D01*
X114371969Y-128039225D01*
X114363644Y-127916625D01*
X114353025Y-127760260D01*
X114353792Y-127747563D01*
X114355360Y-127739338D01*
X114356278Y-127734522D01*
X114355283Y-127729722D01*
X114355283Y-127729719D01*
X114352374Y-127715684D01*
X114351337Y-127705515D01*
X114351349Y-127696144D01*
X114366211Y-115486896D01*
X123064129Y-115486896D01*
X123081513Y-115644353D01*
X123135953Y-115793119D01*
X123224308Y-115924605D01*
X123341476Y-116031219D01*
X123480693Y-116106808D01*
X123483593Y-116107569D01*
X123483596Y-116107570D01*
X123631020Y-116146246D01*
X123631023Y-116146246D01*
X123633922Y-116147007D01*
X123703387Y-116148098D01*
X123789315Y-116149448D01*
X123789316Y-116149448D01*
X123792316Y-116149495D01*
X123795241Y-116148825D01*
X123795242Y-116148825D01*
X123836586Y-116139356D01*
X123946732Y-116114129D01*
X123949412Y-116112781D01*
X123949415Y-116112780D01*
X124085570Y-116044302D01*
X124085574Y-116044300D01*
X124088255Y-116042951D01*
X124090539Y-116041001D01*
X124090541Y-116040999D01*
X124206432Y-115942018D01*
X124208714Y-115940069D01*
X124218375Y-115926625D01*
X124241789Y-115894040D01*
X124274183Y-115873955D01*
X124282231Y-115873300D01*
X124586978Y-115873300D01*
X124622192Y-115887886D01*
X125041420Y-116307114D01*
X125056006Y-116342328D01*
X125055580Y-116348828D01*
X125052119Y-116375121D01*
X125045329Y-116426696D01*
X125045658Y-116429676D01*
X125045658Y-116429679D01*
X125047795Y-116449030D01*
X125062713Y-116584153D01*
X125117153Y-116732919D01*
X125205508Y-116864405D01*
X125322676Y-116971019D01*
X125461893Y-117046608D01*
X125464793Y-117047369D01*
X125464796Y-117047370D01*
X125612220Y-117086046D01*
X125612223Y-117086046D01*
X125615122Y-117086807D01*
X125684587Y-117087898D01*
X125770515Y-117089248D01*
X125770516Y-117089248D01*
X125773516Y-117089295D01*
X125776441Y-117088625D01*
X125776442Y-117088625D01*
X125855151Y-117070598D01*
X125927932Y-117053929D01*
X125930612Y-117052581D01*
X125930615Y-117052580D01*
X126066770Y-116984102D01*
X126066774Y-116984100D01*
X126069455Y-116982751D01*
X126071739Y-116980801D01*
X126071741Y-116980799D01*
X126187632Y-116881818D01*
X126189914Y-116879869D01*
X126192206Y-116876679D01*
X126280604Y-116753661D01*
X126280605Y-116753660D01*
X126282355Y-116751224D01*
X126341442Y-116604241D01*
X126363762Y-116447407D01*
X126363907Y-116433600D01*
X126344876Y-116276333D01*
X126343815Y-116273525D01*
X126343814Y-116273521D01*
X126289941Y-116130954D01*
X126288880Y-116128146D01*
X126199153Y-115997592D01*
X126194910Y-115993811D01*
X126119501Y-115926625D01*
X126080875Y-115892211D01*
X126078224Y-115890807D01*
X126078222Y-115890806D01*
X125943529Y-115819490D01*
X125940874Y-115818084D01*
X125787233Y-115779492D01*
X125784229Y-115779476D01*
X125784227Y-115779476D01*
X125709590Y-115779085D01*
X125628821Y-115778662D01*
X125625902Y-115779363D01*
X125625900Y-115779363D01*
X125623637Y-115779906D01*
X125621698Y-115780372D01*
X125584053Y-115774412D01*
X125574857Y-115767163D01*
X125065541Y-115257847D01*
X125058918Y-115249646D01*
X125051602Y-115238316D01*
X125049371Y-115234860D01*
X125019471Y-115211289D01*
X125015088Y-115207394D01*
X125010856Y-115203162D01*
X125009186Y-115201969D01*
X125009183Y-115201966D01*
X124993682Y-115190889D01*
X124991820Y-115189491D01*
X124974087Y-115175512D01*
X124953386Y-115159192D01*
X124953383Y-115159190D01*
X124950153Y-115156644D01*
X124946269Y-115155280D01*
X124942663Y-115153298D01*
X124942756Y-115153129D01*
X124941195Y-115152318D01*
X124941111Y-115152490D01*
X124937415Y-115150680D01*
X124934066Y-115148286D01*
X124930122Y-115147106D01*
X124930121Y-115147106D01*
X124916558Y-115143050D01*
X124883206Y-115133075D01*
X124881021Y-115132366D01*
X124830949Y-115114782D01*
X124827825Y-115114511D01*
X124827823Y-115114511D01*
X124826469Y-115114394D01*
X124826470Y-115114394D01*
X124825692Y-115114327D01*
X124825688Y-115114326D01*
X124825384Y-115114300D01*
X124825386Y-115114275D01*
X124821077Y-115113549D01*
X124821048Y-115113782D01*
X124816963Y-115113266D01*
X124813022Y-115112087D01*
X124808915Y-115112248D01*
X124808912Y-115112248D01*
X124757663Y-115114262D01*
X124755708Y-115114300D01*
X124282990Y-115114300D01*
X124247776Y-115099714D01*
X124241957Y-115092717D01*
X124217953Y-115057792D01*
X124214656Y-115054854D01*
X124114256Y-114965402D01*
X124099675Y-114952411D01*
X124097024Y-114951007D01*
X124097022Y-114951006D01*
X123962329Y-114879690D01*
X123959674Y-114878284D01*
X123806033Y-114839692D01*
X123803029Y-114839676D01*
X123803027Y-114839676D01*
X123729148Y-114839289D01*
X123647621Y-114838862D01*
X123493584Y-114875843D01*
X123352814Y-114948500D01*
X123233439Y-115052638D01*
X123231716Y-115055090D01*
X123231713Y-115055093D01*
X123190102Y-115114300D01*
X123142350Y-115182244D01*
X123084806Y-115329837D01*
X123084414Y-115332811D01*
X123084414Y-115332813D01*
X123076875Y-115390080D01*
X123064129Y-115486896D01*
X114366211Y-115486896D01*
X114367524Y-114407996D01*
X126137529Y-114407996D01*
X126137858Y-114410976D01*
X126137858Y-114410979D01*
X126139395Y-114424901D01*
X126154913Y-114565453D01*
X126209353Y-114714219D01*
X126297708Y-114845705D01*
X126414876Y-114952319D01*
X126554093Y-115027908D01*
X126556993Y-115028669D01*
X126556996Y-115028670D01*
X126704420Y-115067346D01*
X126704423Y-115067346D01*
X126707322Y-115068107D01*
X126776787Y-115069198D01*
X126862715Y-115070548D01*
X126862716Y-115070548D01*
X126865716Y-115070595D01*
X126868641Y-115069925D01*
X126868642Y-115069925D01*
X126933401Y-115055093D01*
X127020132Y-115035229D01*
X127022812Y-115033881D01*
X127022815Y-115033880D01*
X127158970Y-114965402D01*
X127158974Y-114965400D01*
X127161655Y-114964051D01*
X127163939Y-114962101D01*
X127163941Y-114962099D01*
X127279832Y-114863118D01*
X127282114Y-114861169D01*
X127290271Y-114849818D01*
X127315189Y-114815140D01*
X127347583Y-114795055D01*
X127355631Y-114794400D01*
X130716035Y-114794400D01*
X130751249Y-114808986D01*
X130757366Y-114816420D01*
X130768108Y-114832405D01*
X130770322Y-114834420D01*
X130770325Y-114834423D01*
X130874362Y-114929088D01*
X130885276Y-114939019D01*
X131024493Y-115014608D01*
X131027393Y-115015369D01*
X131027396Y-115015370D01*
X131174820Y-115054046D01*
X131174823Y-115054046D01*
X131177722Y-115054807D01*
X131240749Y-115055797D01*
X131333115Y-115057248D01*
X131333116Y-115057248D01*
X131336116Y-115057295D01*
X131339041Y-115056625D01*
X131339042Y-115056625D01*
X131402653Y-115042056D01*
X131490532Y-115021929D01*
X131493212Y-115020581D01*
X131493215Y-115020580D01*
X131629370Y-114952102D01*
X131629374Y-114952100D01*
X131632055Y-114950751D01*
X131634339Y-114948801D01*
X131634341Y-114948799D01*
X131750232Y-114849818D01*
X131752514Y-114847869D01*
X131758401Y-114839676D01*
X131843204Y-114721661D01*
X131843205Y-114721660D01*
X131844955Y-114719224D01*
X131882351Y-114626199D01*
X131909019Y-114598967D01*
X131947132Y-114598568D01*
X131963771Y-114609560D01*
X134125364Y-116771153D01*
X134131986Y-116779353D01*
X134141534Y-116794140D01*
X134144764Y-116796686D01*
X134171434Y-116817711D01*
X134175817Y-116821606D01*
X134180049Y-116825838D01*
X134197236Y-116838120D01*
X134199062Y-116839491D01*
X134240752Y-116872356D01*
X134244636Y-116873720D01*
X134248243Y-116875703D01*
X134248151Y-116875870D01*
X134249710Y-116876679D01*
X134249794Y-116876509D01*
X134253490Y-116878320D01*
X134256839Y-116880713D01*
X134307688Y-116895921D01*
X134309873Y-116896630D01*
X134359956Y-116914218D01*
X134363080Y-116914489D01*
X134363082Y-116914489D01*
X134364312Y-116914595D01*
X134365213Y-116914673D01*
X134365217Y-116914674D01*
X134365521Y-116914700D01*
X134365519Y-116914725D01*
X134369828Y-116915451D01*
X134369857Y-116915218D01*
X134373942Y-116915734D01*
X134377883Y-116916913D01*
X134381990Y-116916752D01*
X134381993Y-116916752D01*
X134433242Y-116914738D01*
X134435197Y-116914700D01*
X135304498Y-116914700D01*
X135339712Y-116929286D01*
X135345826Y-116936715D01*
X135365508Y-116966005D01*
X135482676Y-117072619D01*
X135621893Y-117148208D01*
X135624793Y-117148969D01*
X135624796Y-117148970D01*
X135772220Y-117187646D01*
X135772223Y-117187646D01*
X135775122Y-117188407D01*
X135844587Y-117189498D01*
X135930515Y-117190848D01*
X135930516Y-117190848D01*
X135933516Y-117190895D01*
X135936441Y-117190225D01*
X135936442Y-117190225D01*
X135977786Y-117180756D01*
X136087932Y-117155529D01*
X136090612Y-117154181D01*
X136090615Y-117154180D01*
X136226770Y-117085702D01*
X136226774Y-117085700D01*
X136229455Y-117084351D01*
X136231739Y-117082401D01*
X136231741Y-117082399D01*
X136347632Y-116983418D01*
X136349914Y-116981469D01*
X136351666Y-116979031D01*
X136440604Y-116855261D01*
X136440605Y-116855260D01*
X136442355Y-116852824D01*
X136501442Y-116705841D01*
X136523762Y-116549007D01*
X136523907Y-116535200D01*
X136504876Y-116377933D01*
X136503815Y-116375125D01*
X136503814Y-116375121D01*
X136449941Y-116232554D01*
X136448880Y-116229746D01*
X136387965Y-116141114D01*
X136360852Y-116101664D01*
X136359153Y-116099192D01*
X136353369Y-116094038D01*
X136247893Y-116000064D01*
X136240875Y-115993811D01*
X136238224Y-115992407D01*
X136238222Y-115992406D01*
X136103529Y-115921090D01*
X136100874Y-115919684D01*
X135947233Y-115881092D01*
X135944229Y-115881076D01*
X135944227Y-115881076D01*
X135870348Y-115880689D01*
X135788821Y-115880262D01*
X135634784Y-115917243D01*
X135494014Y-115989900D01*
X135374639Y-116094038D01*
X135372916Y-116096490D01*
X135372913Y-116096493D01*
X135346177Y-116134535D01*
X135313995Y-116154958D01*
X135305433Y-116155700D01*
X134603927Y-116155700D01*
X134568713Y-116141114D01*
X132860332Y-114432733D01*
X156076114Y-114432733D01*
X156079971Y-114491568D01*
X156080681Y-114496052D01*
X156129504Y-114688292D01*
X156131021Y-114692576D01*
X156214056Y-114872691D01*
X156216327Y-114876626D01*
X156330798Y-115038599D01*
X156333750Y-115042056D01*
X156475816Y-115180450D01*
X156479357Y-115183317D01*
X156644262Y-115293503D01*
X156648256Y-115295671D01*
X156830484Y-115373963D01*
X156834814Y-115375370D01*
X157028253Y-115419141D01*
X157032763Y-115419735D01*
X157063701Y-115420950D01*
X157070275Y-115418525D01*
X157073397Y-115411387D01*
X157276800Y-115411387D01*
X157279701Y-115418392D01*
X157284137Y-115420229D01*
X157431776Y-115398823D01*
X157436185Y-115397764D01*
X157623993Y-115334011D01*
X157628161Y-115332155D01*
X157801198Y-115235250D01*
X157804949Y-115232672D01*
X157957432Y-115105854D01*
X157960654Y-115102632D01*
X158087472Y-114950149D01*
X158090050Y-114946398D01*
X158186955Y-114773361D01*
X158188811Y-114769193D01*
X158252564Y-114581385D01*
X158253623Y-114576976D01*
X158274672Y-114431802D01*
X158272806Y-114424455D01*
X158268680Y-114422000D01*
X157286706Y-114422000D01*
X157279701Y-114424901D01*
X157276800Y-114431906D01*
X157276800Y-115411387D01*
X157073397Y-115411387D01*
X157073600Y-115410923D01*
X157073600Y-114431906D01*
X157070699Y-114424901D01*
X157063694Y-114422000D01*
X156085317Y-114422000D01*
X156079200Y-114424533D01*
X156076114Y-114432733D01*
X132860332Y-114432733D01*
X132636563Y-114208964D01*
X156076604Y-114208964D01*
X156078662Y-114216260D01*
X156083197Y-114218800D01*
X157063694Y-114218800D01*
X157070699Y-114215899D01*
X157073600Y-114208894D01*
X157276800Y-114208894D01*
X157279701Y-114215899D01*
X157286706Y-114218800D01*
X158264688Y-114218800D01*
X158271693Y-114215899D01*
X158273849Y-114210693D01*
X158265573Y-114120625D01*
X158264744Y-114116150D01*
X158210909Y-113925264D01*
X158209279Y-113921019D01*
X158121560Y-113743142D01*
X158119179Y-113739257D01*
X158000512Y-113580343D01*
X157997471Y-113576965D01*
X157851828Y-113442334D01*
X157848222Y-113439567D01*
X157680489Y-113333736D01*
X157676430Y-113331667D01*
X157492216Y-113258174D01*
X157487856Y-113256882D01*
X157293333Y-113218189D01*
X157288813Y-113217714D01*
X157286705Y-113217687D01*
X157279841Y-113220425D01*
X157276800Y-113227633D01*
X157276800Y-114208894D01*
X157073600Y-114208894D01*
X157073600Y-113227504D01*
X157070699Y-113220499D01*
X157066599Y-113218801D01*
X156890488Y-113249063D01*
X156886099Y-113250239D01*
X156700020Y-113318887D01*
X156695914Y-113320846D01*
X156525471Y-113422249D01*
X156521788Y-113424925D01*
X156372674Y-113555694D01*
X156369542Y-113558994D01*
X156246753Y-113714751D01*
X156244278Y-113718562D01*
X156151932Y-113894082D01*
X156150189Y-113898291D01*
X156091376Y-114087700D01*
X156090429Y-114092151D01*
X156076604Y-114208964D01*
X132636563Y-114208964D01*
X130543686Y-112116087D01*
X130529100Y-112080873D01*
X130529100Y-111862401D01*
X130543686Y-111827187D01*
X130546557Y-111824533D01*
X130567106Y-111806983D01*
X130634914Y-111749069D01*
X130653266Y-111723530D01*
X130706114Y-111649984D01*
X134746616Y-111649984D01*
X134746945Y-111652964D01*
X134746945Y-111652967D01*
X134750776Y-111687668D01*
X134764000Y-111807441D01*
X134818440Y-111956207D01*
X134906795Y-112087693D01*
X135023963Y-112194307D01*
X135163180Y-112269896D01*
X135166080Y-112270657D01*
X135166083Y-112270658D01*
X135313507Y-112309334D01*
X135313510Y-112309334D01*
X135316409Y-112310095D01*
X135385874Y-112311186D01*
X135471802Y-112312536D01*
X135471803Y-112312536D01*
X135474803Y-112312583D01*
X135488705Y-112309399D01*
X135526285Y-112315757D01*
X135535034Y-112322729D01*
X135598742Y-112386437D01*
X135605364Y-112394637D01*
X135614912Y-112409424D01*
X135618142Y-112411970D01*
X135644812Y-112432995D01*
X135649195Y-112436890D01*
X135653427Y-112441122D01*
X135670614Y-112453404D01*
X135672440Y-112454775D01*
X135714130Y-112487640D01*
X135718014Y-112489004D01*
X135721621Y-112490987D01*
X135721529Y-112491154D01*
X135723088Y-112491963D01*
X135723172Y-112491793D01*
X135726868Y-112493604D01*
X135730217Y-112495997D01*
X135781066Y-112511205D01*
X135783251Y-112511914D01*
X135833334Y-112529502D01*
X135836458Y-112529773D01*
X135836460Y-112529773D01*
X135837690Y-112529879D01*
X135838591Y-112529957D01*
X135838595Y-112529958D01*
X135838899Y-112529984D01*
X135838897Y-112530009D01*
X135843206Y-112530735D01*
X135843235Y-112530502D01*
X135847320Y-112531018D01*
X135851261Y-112532197D01*
X135855368Y-112532036D01*
X135855371Y-112532036D01*
X135906620Y-112530022D01*
X135908575Y-112529984D01*
X137052181Y-112529984D01*
X137087395Y-112544570D01*
X137093509Y-112551999D01*
X137113191Y-112581289D01*
X137230359Y-112687903D01*
X137369576Y-112763492D01*
X137372476Y-112764253D01*
X137372479Y-112764254D01*
X137519903Y-112802930D01*
X137519906Y-112802930D01*
X137522805Y-112803691D01*
X137592270Y-112804782D01*
X137678198Y-112806132D01*
X137678199Y-112806132D01*
X137681199Y-112806179D01*
X137684124Y-112805509D01*
X137684125Y-112805509D01*
X137725469Y-112796040D01*
X137835615Y-112770813D01*
X137838295Y-112769465D01*
X137838298Y-112769464D01*
X137974453Y-112700986D01*
X137974457Y-112700984D01*
X137977138Y-112699635D01*
X137979422Y-112697685D01*
X137979424Y-112697683D01*
X138095315Y-112598702D01*
X138097597Y-112596753D01*
X138129750Y-112552008D01*
X138188287Y-112470545D01*
X138188288Y-112470544D01*
X138190038Y-112468108D01*
X138249125Y-112321125D01*
X138271445Y-112164291D01*
X138271590Y-112150484D01*
X138252559Y-111993217D01*
X138251498Y-111990409D01*
X138251497Y-111990405D01*
X138236887Y-111951743D01*
X138238084Y-111913647D01*
X138265869Y-111887555D01*
X138296108Y-111885970D01*
X138328841Y-111894557D01*
X138396204Y-111912230D01*
X138396207Y-111912230D01*
X138399106Y-111912991D01*
X138468571Y-111914082D01*
X138554499Y-111915432D01*
X138554500Y-111915432D01*
X138557500Y-111915479D01*
X138560425Y-111914809D01*
X138560426Y-111914809D01*
X138601770Y-111905340D01*
X138711916Y-111880113D01*
X138714596Y-111878765D01*
X138714599Y-111878764D01*
X138850754Y-111810286D01*
X138850758Y-111810284D01*
X138853439Y-111808935D01*
X138855723Y-111806985D01*
X138855725Y-111806983D01*
X138971616Y-111708002D01*
X138973898Y-111706053D01*
X139066339Y-111577408D01*
X139125426Y-111430425D01*
X139132963Y-111377469D01*
X139147515Y-111275214D01*
X139147746Y-111273591D01*
X139147891Y-111259784D01*
X139128860Y-111102517D01*
X139127799Y-111099709D01*
X139127798Y-111099705D01*
X139073925Y-110957138D01*
X139072864Y-110954330D01*
X139039189Y-110905333D01*
X156070700Y-110905333D01*
X156070701Y-112655466D01*
X156085466Y-112729701D01*
X156088192Y-112733780D01*
X156088192Y-112733781D01*
X156138991Y-112809806D01*
X156141716Y-112813884D01*
X156225899Y-112870134D01*
X156230711Y-112871091D01*
X156230713Y-112871092D01*
X156297734Y-112884423D01*
X156297736Y-112884423D01*
X156300133Y-112884900D01*
X157175200Y-112884900D01*
X158050266Y-112884899D01*
X158052663Y-112884422D01*
X158052666Y-112884422D01*
X158080796Y-112878827D01*
X158124501Y-112870134D01*
X158208684Y-112813884D01*
X158211409Y-112809806D01*
X158262208Y-112733781D01*
X158262208Y-112733780D01*
X158264934Y-112729701D01*
X158270915Y-112699635D01*
X158279223Y-112657866D01*
X158279223Y-112657864D01*
X158279700Y-112655467D01*
X158279699Y-110905334D01*
X158279007Y-110901852D01*
X158270615Y-110859664D01*
X158264934Y-110831099D01*
X158258707Y-110821779D01*
X158211409Y-110750994D01*
X158208684Y-110746916D01*
X158203745Y-110743616D01*
X158128581Y-110693392D01*
X158128580Y-110693392D01*
X158124501Y-110690666D01*
X158119689Y-110689709D01*
X158119687Y-110689708D01*
X158052666Y-110676377D01*
X158052664Y-110676377D01*
X158050267Y-110675900D01*
X158047821Y-110675900D01*
X157175201Y-110675901D01*
X156300134Y-110675901D01*
X156297737Y-110676378D01*
X156297734Y-110676378D01*
X156269604Y-110681973D01*
X156225899Y-110690666D01*
X156221820Y-110693392D01*
X156221819Y-110693392D01*
X156146655Y-110743616D01*
X156141716Y-110746916D01*
X156138991Y-110750994D01*
X156091694Y-110821779D01*
X156085466Y-110831099D01*
X156084509Y-110835911D01*
X156084508Y-110835913D01*
X156077336Y-110871969D01*
X156070700Y-110905333D01*
X139039189Y-110905333D01*
X139012274Y-110866171D01*
X138984836Y-110826248D01*
X138983137Y-110823776D01*
X138977353Y-110818622D01*
X138897324Y-110747320D01*
X138864859Y-110718395D01*
X138862208Y-110716991D01*
X138862206Y-110716990D01*
X138733183Y-110648676D01*
X138724858Y-110644268D01*
X138571217Y-110605676D01*
X138568213Y-110605660D01*
X138568211Y-110605660D01*
X138494332Y-110605273D01*
X138412805Y-110604846D01*
X138258768Y-110641827D01*
X138117998Y-110714484D01*
X137998623Y-110818622D01*
X137996900Y-110821074D01*
X137996897Y-110821077D01*
X137966665Y-110864093D01*
X137907534Y-110948228D01*
X137906445Y-110951021D01*
X137906444Y-110951023D01*
X137881589Y-111014774D01*
X137855208Y-111042284D01*
X137835191Y-111046484D01*
X136876806Y-111046484D01*
X136841592Y-111031898D01*
X136654819Y-110845125D01*
X136640233Y-110809911D01*
X136640730Y-110802894D01*
X136649866Y-110738706D01*
X136650762Y-110732407D01*
X136650907Y-110718600D01*
X136631876Y-110561333D01*
X136630815Y-110558525D01*
X136630814Y-110558521D01*
X136576941Y-110415954D01*
X136575880Y-110413146D01*
X136486153Y-110282592D01*
X136480369Y-110277438D01*
X136370115Y-110179207D01*
X136367875Y-110177211D01*
X136365224Y-110175807D01*
X136365222Y-110175806D01*
X136230529Y-110104490D01*
X136227874Y-110103084D01*
X136074233Y-110064492D01*
X136071229Y-110064476D01*
X136071227Y-110064476D01*
X135997348Y-110064089D01*
X135915821Y-110063662D01*
X135761784Y-110100643D01*
X135621014Y-110173300D01*
X135501639Y-110277438D01*
X135499916Y-110279890D01*
X135499913Y-110279893D01*
X135441341Y-110363233D01*
X135410550Y-110407044D01*
X135409461Y-110409837D01*
X135409460Y-110409839D01*
X135408171Y-110413146D01*
X135353006Y-110554637D01*
X135352614Y-110557611D01*
X135352614Y-110557613D01*
X135352124Y-110561333D01*
X135332329Y-110711696D01*
X135332658Y-110714676D01*
X135332658Y-110714679D01*
X135337818Y-110761411D01*
X135349713Y-110869153D01*
X135360415Y-110898398D01*
X135373957Y-110935405D01*
X135372361Y-110973487D01*
X135344304Y-110999286D01*
X135333011Y-111001965D01*
X135330108Y-111001950D01*
X135176071Y-111038931D01*
X135035301Y-111111588D01*
X134915926Y-111215726D01*
X134914203Y-111218178D01*
X134914200Y-111218181D01*
X134874117Y-111275214D01*
X134824837Y-111345332D01*
X134823748Y-111348125D01*
X134823747Y-111348127D01*
X134812732Y-111376379D01*
X134767293Y-111492925D01*
X134766901Y-111495899D01*
X134766901Y-111495901D01*
X134766411Y-111499621D01*
X134746616Y-111649984D01*
X130706114Y-111649984D01*
X130725604Y-111622861D01*
X130725605Y-111622860D01*
X130727355Y-111620424D01*
X130786442Y-111473441D01*
X130808762Y-111316607D01*
X130808907Y-111302800D01*
X130789876Y-111145533D01*
X130788815Y-111142725D01*
X130788814Y-111142721D01*
X130734941Y-111000154D01*
X130733880Y-110997346D01*
X130672323Y-110907780D01*
X130645852Y-110869264D01*
X130644153Y-110866792D01*
X130638369Y-110861638D01*
X130564501Y-110795825D01*
X130525875Y-110761411D01*
X130523224Y-110760007D01*
X130523222Y-110760006D01*
X130441979Y-110716990D01*
X130385874Y-110687284D01*
X130232233Y-110648692D01*
X130229229Y-110648676D01*
X130229227Y-110648676D01*
X130155348Y-110648289D01*
X130073821Y-110647862D01*
X129919784Y-110684843D01*
X129779014Y-110757500D01*
X129659639Y-110861638D01*
X129657916Y-110864090D01*
X129657913Y-110864093D01*
X129623188Y-110913502D01*
X129568550Y-110991244D01*
X129567461Y-110994037D01*
X129567460Y-110994039D01*
X129557866Y-111018648D01*
X129511006Y-111138837D01*
X129510614Y-111141811D01*
X129510614Y-111141813D01*
X129510124Y-111145533D01*
X129490329Y-111295896D01*
X129490658Y-111298876D01*
X129490658Y-111298879D01*
X129498985Y-111374295D01*
X129507713Y-111453353D01*
X129562153Y-111602119D01*
X129650508Y-111733605D01*
X129750438Y-111824533D01*
X129753816Y-111827607D01*
X129770100Y-111864441D01*
X129770100Y-112212885D01*
X129768984Y-112223367D01*
X129765280Y-112240571D01*
X129765764Y-112244660D01*
X129765764Y-112244661D01*
X129769755Y-112278379D01*
X129770100Y-112284233D01*
X129770100Y-112290219D01*
X129770437Y-112292246D01*
X129770438Y-112292253D01*
X129773563Y-112311026D01*
X129773894Y-112313349D01*
X129775144Y-112323911D01*
X129780130Y-112366036D01*
X129781912Y-112369748D01*
X129783061Y-112373701D01*
X129782875Y-112373755D01*
X129783404Y-112375426D01*
X129783586Y-112375364D01*
X129784921Y-112379262D01*
X129785596Y-112383321D01*
X129787551Y-112386944D01*
X129810783Y-112430001D01*
X129811848Y-112432092D01*
X129833459Y-112477096D01*
X129833461Y-112477100D01*
X129834819Y-112479927D01*
X129838234Y-112483988D01*
X129838234Y-112483989D01*
X129838414Y-112484203D01*
X129838397Y-112484217D01*
X129840929Y-112487775D01*
X129841112Y-112487633D01*
X129843634Y-112490884D01*
X129845590Y-112494509D01*
X129848615Y-112497305D01*
X129886258Y-112532102D01*
X129887668Y-112533457D01*
X131056047Y-113701836D01*
X131070633Y-113737050D01*
X131056047Y-113772264D01*
X131038887Y-113783282D01*
X131037384Y-113783643D01*
X130896614Y-113856300D01*
X130777239Y-113960438D01*
X130775516Y-113962890D01*
X130775513Y-113962893D01*
X130739430Y-114014235D01*
X130707248Y-114034658D01*
X130698686Y-114035400D01*
X127356390Y-114035400D01*
X127321176Y-114020814D01*
X127315357Y-114013817D01*
X127291353Y-113978892D01*
X127173075Y-113873511D01*
X127170424Y-113872107D01*
X127170422Y-113872106D01*
X127035729Y-113800790D01*
X127033074Y-113799384D01*
X126879433Y-113760792D01*
X126876429Y-113760776D01*
X126876427Y-113760776D01*
X126802548Y-113760389D01*
X126721021Y-113759962D01*
X126566984Y-113796943D01*
X126426214Y-113869600D01*
X126306839Y-113973738D01*
X126305116Y-113976190D01*
X126305113Y-113976193D01*
X126263502Y-114035400D01*
X126215750Y-114103344D01*
X126158206Y-114250937D01*
X126137529Y-114407996D01*
X114367524Y-114407996D01*
X114371670Y-111001989D01*
X114372456Y-110356096D01*
X123800729Y-110356096D01*
X123801058Y-110359076D01*
X123801058Y-110359079D01*
X123811057Y-110449644D01*
X123818113Y-110513553D01*
X123872553Y-110662319D01*
X123960908Y-110793805D01*
X124078076Y-110900419D01*
X124217293Y-110976008D01*
X124220193Y-110976769D01*
X124220196Y-110976770D01*
X124367620Y-111015446D01*
X124367623Y-111015446D01*
X124370522Y-111016207D01*
X124439987Y-111017298D01*
X124525915Y-111018648D01*
X124525916Y-111018648D01*
X124528916Y-111018695D01*
X124531841Y-111018025D01*
X124531842Y-111018025D01*
X124573186Y-111008556D01*
X124683332Y-110983329D01*
X124686012Y-110981981D01*
X124686015Y-110981980D01*
X124822170Y-110913502D01*
X124822174Y-110913500D01*
X124824855Y-110912151D01*
X124827139Y-110910201D01*
X124827141Y-110910199D01*
X124943032Y-110811218D01*
X124945314Y-110809269D01*
X124954975Y-110795825D01*
X124978389Y-110763240D01*
X125010783Y-110743155D01*
X125018831Y-110742500D01*
X128097190Y-110742500D01*
X128107672Y-110743616D01*
X128120848Y-110746453D01*
X128120849Y-110746453D01*
X128124876Y-110747320D01*
X128128965Y-110746836D01*
X128128966Y-110746836D01*
X128162684Y-110742845D01*
X128168538Y-110742500D01*
X128174524Y-110742500D01*
X128176551Y-110742163D01*
X128176558Y-110742162D01*
X128195331Y-110739037D01*
X128197654Y-110738706D01*
X128246251Y-110732954D01*
X128250341Y-110732470D01*
X128254053Y-110730688D01*
X128258006Y-110729539D01*
X128258060Y-110729725D01*
X128259731Y-110729196D01*
X128259669Y-110729014D01*
X128263567Y-110727679D01*
X128267626Y-110727004D01*
X128314306Y-110701817D01*
X128316397Y-110700752D01*
X128361401Y-110679141D01*
X128361405Y-110679139D01*
X128364232Y-110677781D01*
X128368508Y-110674186D01*
X128368522Y-110674203D01*
X128372080Y-110671671D01*
X128371938Y-110671488D01*
X128375189Y-110668966D01*
X128378814Y-110667010D01*
X128416407Y-110626342D01*
X128417762Y-110624932D01*
X129663584Y-109379110D01*
X129698798Y-109364524D01*
X129703015Y-109364812D01*
X129704522Y-109365207D01*
X129779145Y-109366379D01*
X129859915Y-109367648D01*
X129859916Y-109367648D01*
X129862916Y-109367695D01*
X129865841Y-109367025D01*
X129865842Y-109367025D01*
X129961339Y-109345153D01*
X130017332Y-109332329D01*
X130020012Y-109330981D01*
X130020015Y-109330980D01*
X130156170Y-109262502D01*
X130156174Y-109262500D01*
X130158855Y-109261151D01*
X130161139Y-109259201D01*
X130161141Y-109259199D01*
X130277032Y-109160218D01*
X130279314Y-109158269D01*
X130331803Y-109085223D01*
X130370004Y-109032061D01*
X130370005Y-109032060D01*
X130371755Y-109029624D01*
X130430842Y-108882641D01*
X130453162Y-108725807D01*
X130453307Y-108712000D01*
X130434276Y-108554733D01*
X130433215Y-108551925D01*
X130433214Y-108551921D01*
X130379341Y-108409354D01*
X130378280Y-108406546D01*
X130288553Y-108275992D01*
X130282769Y-108270838D01*
X130172515Y-108172607D01*
X130170275Y-108170611D01*
X130167624Y-108169207D01*
X130167622Y-108169206D01*
X130032929Y-108097890D01*
X130030274Y-108096484D01*
X129876633Y-108057892D01*
X129873629Y-108057876D01*
X129873627Y-108057876D01*
X129799748Y-108057489D01*
X129718221Y-108057062D01*
X129564184Y-108094043D01*
X129423414Y-108166700D01*
X129304039Y-108270838D01*
X129302316Y-108273290D01*
X129302313Y-108273293D01*
X129298679Y-108278464D01*
X129212950Y-108400444D01*
X129211861Y-108403237D01*
X129211860Y-108403239D01*
X129210571Y-108406546D01*
X129155406Y-108548037D01*
X129155014Y-108551011D01*
X129155014Y-108551013D01*
X129154524Y-108554733D01*
X129134729Y-108705096D01*
X129135058Y-108708076D01*
X129135058Y-108708079D01*
X129144979Y-108797933D01*
X129134346Y-108834535D01*
X129130694Y-108838612D01*
X128000392Y-109968914D01*
X127965178Y-109983500D01*
X125019590Y-109983500D01*
X124984376Y-109968914D01*
X124978557Y-109961917D01*
X124954553Y-109926992D01*
X124849340Y-109833251D01*
X124832751Y-109798935D01*
X124845285Y-109762940D01*
X124860093Y-109751578D01*
X124872967Y-109745103D01*
X124872968Y-109745103D01*
X124875655Y-109743751D01*
X124877939Y-109741801D01*
X124877941Y-109741799D01*
X124993832Y-109642818D01*
X124996114Y-109640869D01*
X125088555Y-109512224D01*
X125147642Y-109365241D01*
X125169962Y-109208407D01*
X125170107Y-109194600D01*
X125165946Y-109160218D01*
X125159783Y-109109283D01*
X125170033Y-109072571D01*
X125174008Y-109068086D01*
X126888608Y-107353486D01*
X126923822Y-107338900D01*
X130435514Y-107338900D01*
X130445996Y-107340016D01*
X130459172Y-107342853D01*
X130459173Y-107342853D01*
X130463200Y-107343720D01*
X130467289Y-107343236D01*
X130467290Y-107343236D01*
X130501008Y-107339245D01*
X130506862Y-107338900D01*
X130512848Y-107338900D01*
X130514875Y-107338563D01*
X130514882Y-107338562D01*
X130533655Y-107335437D01*
X130535978Y-107335106D01*
X130584575Y-107329354D01*
X130588665Y-107328870D01*
X130592377Y-107327088D01*
X130596330Y-107325939D01*
X130596384Y-107326125D01*
X130598055Y-107325596D01*
X130597993Y-107325414D01*
X130601891Y-107324079D01*
X130605950Y-107323404D01*
X130644833Y-107302424D01*
X130652630Y-107298217D01*
X130654721Y-107297152D01*
X130699725Y-107275541D01*
X130699729Y-107275539D01*
X130702556Y-107274181D01*
X130706832Y-107270586D01*
X130706846Y-107270603D01*
X130710404Y-107268071D01*
X130710262Y-107267888D01*
X130713513Y-107265366D01*
X130717138Y-107263410D01*
X130754731Y-107222742D01*
X130756086Y-107221332D01*
X131472045Y-106505373D01*
X131507259Y-106490787D01*
X131511476Y-106491075D01*
X131512983Y-106491470D01*
X131587606Y-106492642D01*
X131668376Y-106493911D01*
X131668377Y-106493911D01*
X131671377Y-106493958D01*
X131674302Y-106493288D01*
X131674303Y-106493288D01*
X131715647Y-106483819D01*
X131825793Y-106458592D01*
X131828473Y-106457244D01*
X131828476Y-106457243D01*
X131964631Y-106388765D01*
X131964635Y-106388763D01*
X131967316Y-106387414D01*
X131969600Y-106385464D01*
X131969602Y-106385462D01*
X132085493Y-106286481D01*
X132087775Y-106284532D01*
X132180216Y-106155887D01*
X132239303Y-106008904D01*
X132261623Y-105852070D01*
X132261768Y-105838263D01*
X132242737Y-105680996D01*
X132241676Y-105678188D01*
X132241675Y-105678184D01*
X132187802Y-105535617D01*
X132186741Y-105532809D01*
X132097014Y-105402255D01*
X132091230Y-105397101D01*
X131980976Y-105298870D01*
X131978736Y-105296874D01*
X131976085Y-105295470D01*
X131976083Y-105295469D01*
X131841390Y-105224153D01*
X131838735Y-105222747D01*
X131685094Y-105184155D01*
X131682090Y-105184139D01*
X131682088Y-105184139D01*
X131608209Y-105183752D01*
X131526682Y-105183325D01*
X131372645Y-105220306D01*
X131231875Y-105292963D01*
X131112500Y-105397101D01*
X131110777Y-105399553D01*
X131110774Y-105399556D01*
X131107140Y-105404727D01*
X131021411Y-105526707D01*
X131020322Y-105529500D01*
X131020321Y-105529502D01*
X131019032Y-105532809D01*
X130963867Y-105674300D01*
X130963475Y-105677274D01*
X130963475Y-105677276D01*
X130962985Y-105680996D01*
X130943190Y-105831359D01*
X130943519Y-105834339D01*
X130943519Y-105834342D01*
X130953440Y-105924196D01*
X130942807Y-105960798D01*
X130939155Y-105964875D01*
X130338716Y-106565314D01*
X130303502Y-106579900D01*
X126791810Y-106579900D01*
X126781328Y-106578784D01*
X126768152Y-106575947D01*
X126768151Y-106575947D01*
X126764124Y-106575080D01*
X126760035Y-106575564D01*
X126760034Y-106575564D01*
X126726316Y-106579555D01*
X126720462Y-106579900D01*
X126714476Y-106579900D01*
X126712449Y-106580237D01*
X126712442Y-106580238D01*
X126693669Y-106583363D01*
X126691346Y-106583694D01*
X126648845Y-106588724D01*
X126638659Y-106589930D01*
X126634947Y-106591712D01*
X126630994Y-106592861D01*
X126630940Y-106592675D01*
X126629269Y-106593204D01*
X126629331Y-106593386D01*
X126625433Y-106594721D01*
X126621374Y-106595396D01*
X126617750Y-106597351D01*
X126617751Y-106597351D01*
X126574668Y-106620597D01*
X126572577Y-106621662D01*
X126527598Y-106643261D01*
X126524768Y-106644620D01*
X126520492Y-106648214D01*
X126520475Y-106648194D01*
X126516917Y-106650726D01*
X126517062Y-106650912D01*
X126513811Y-106653434D01*
X126510186Y-106655390D01*
X126488041Y-106679346D01*
X126472593Y-106696058D01*
X126471238Y-106697468D01*
X124641195Y-108527511D01*
X124605981Y-108542097D01*
X124599364Y-108541280D01*
X124599324Y-108541600D01*
X124596345Y-108541224D01*
X124593433Y-108540492D01*
X124590432Y-108540476D01*
X124590430Y-108540476D01*
X124514227Y-108540077D01*
X124435021Y-108539662D01*
X124280984Y-108576643D01*
X124140214Y-108649300D01*
X124020839Y-108753438D01*
X124019116Y-108755890D01*
X124019113Y-108755893D01*
X123989567Y-108797933D01*
X123929750Y-108883044D01*
X123872206Y-109030637D01*
X123851529Y-109187696D01*
X123851858Y-109190676D01*
X123851858Y-109190679D01*
X123853995Y-109210030D01*
X123868913Y-109345153D01*
X123923353Y-109493919D01*
X124011708Y-109625405D01*
X124013928Y-109627425D01*
X124121678Y-109725470D01*
X124137907Y-109759958D01*
X124124996Y-109795820D01*
X124111003Y-109806557D01*
X124089414Y-109817700D01*
X123970039Y-109921838D01*
X123968316Y-109924290D01*
X123968313Y-109924293D01*
X123941878Y-109961907D01*
X123878950Y-110051444D01*
X123821406Y-110199037D01*
X123800729Y-110356096D01*
X114372456Y-110356096D01*
X114379506Y-104564896D01*
X149327729Y-104564896D01*
X149328058Y-104567876D01*
X149328058Y-104567879D01*
X149338057Y-104658444D01*
X149345113Y-104722353D01*
X149399553Y-104871119D01*
X149487908Y-105002605D01*
X149587838Y-105093533D01*
X149591216Y-105096607D01*
X149607500Y-105133441D01*
X149607500Y-106659590D01*
X149606384Y-106670072D01*
X149604920Y-106676874D01*
X149602680Y-106687276D01*
X149603164Y-106691365D01*
X149603164Y-106691366D01*
X149607155Y-106725084D01*
X149607500Y-106730938D01*
X149607500Y-106736924D01*
X149607837Y-106738951D01*
X149607838Y-106738958D01*
X149610963Y-106757731D01*
X149611294Y-106760054D01*
X149617530Y-106812741D01*
X149619312Y-106816453D01*
X149620461Y-106820406D01*
X149620275Y-106820460D01*
X149620804Y-106822132D01*
X149620986Y-106822070D01*
X149622011Y-106825064D01*
X149622140Y-106826355D01*
X149622658Y-106827993D01*
X149622997Y-106830032D01*
X149622515Y-106830112D01*
X149624270Y-106847694D01*
X149607129Y-106977896D01*
X149607458Y-106980876D01*
X149607458Y-106980879D01*
X149609595Y-107000230D01*
X149624513Y-107135353D01*
X149678953Y-107284119D01*
X149767308Y-107415605D01*
X149884476Y-107522219D01*
X150023693Y-107597808D01*
X150026593Y-107598569D01*
X150026596Y-107598570D01*
X150174020Y-107637246D01*
X150174023Y-107637246D01*
X150176922Y-107638007D01*
X150246387Y-107639098D01*
X150332315Y-107640448D01*
X150332316Y-107640448D01*
X150335316Y-107640495D01*
X150338241Y-107639825D01*
X150338242Y-107639825D01*
X150379586Y-107630356D01*
X150489732Y-107605129D01*
X150492412Y-107603781D01*
X150492415Y-107603780D01*
X150628570Y-107535302D01*
X150628574Y-107535300D01*
X150631255Y-107533951D01*
X150633539Y-107532001D01*
X150633541Y-107531999D01*
X150749432Y-107433018D01*
X150751714Y-107431069D01*
X150815104Y-107342853D01*
X150842404Y-107304861D01*
X150842405Y-107304860D01*
X150844155Y-107302424D01*
X150903242Y-107155441D01*
X150925562Y-106998607D01*
X150925707Y-106984800D01*
X150906676Y-106827533D01*
X150905615Y-106824725D01*
X150905614Y-106824721D01*
X150855222Y-106691366D01*
X150850680Y-106679346D01*
X150760953Y-106548792D01*
X150642675Y-106443411D01*
X150640024Y-106442007D01*
X150640022Y-106442006D01*
X150505329Y-106370690D01*
X150502674Y-106369284D01*
X150404167Y-106344541D01*
X150373568Y-106321815D01*
X150366500Y-106296241D01*
X150366500Y-105131401D01*
X150381086Y-105096187D01*
X150383957Y-105093533D01*
X150470032Y-105020018D01*
X150472314Y-105018069D01*
X150564755Y-104889424D01*
X150623842Y-104742441D01*
X150646162Y-104585607D01*
X150646307Y-104571800D01*
X150627276Y-104414533D01*
X150626215Y-104411725D01*
X150626214Y-104411721D01*
X150572341Y-104269154D01*
X150571280Y-104266346D01*
X150481553Y-104135792D01*
X150475769Y-104130638D01*
X150365515Y-104032407D01*
X150363275Y-104030411D01*
X150360624Y-104029007D01*
X150360622Y-104029006D01*
X150225929Y-103957690D01*
X150223274Y-103956284D01*
X150069633Y-103917692D01*
X150066629Y-103917676D01*
X150066627Y-103917676D01*
X149992748Y-103917289D01*
X149911221Y-103916862D01*
X149757184Y-103953843D01*
X149616414Y-104026500D01*
X149497039Y-104130638D01*
X149495316Y-104133090D01*
X149495313Y-104133093D01*
X149491679Y-104138264D01*
X149405950Y-104260244D01*
X149404861Y-104263037D01*
X149404860Y-104263039D01*
X149398666Y-104278926D01*
X149348406Y-104407837D01*
X149348014Y-104410811D01*
X149348014Y-104410813D01*
X149347524Y-104414533D01*
X149327729Y-104564896D01*
X114379506Y-104564896D01*
X114380820Y-103485600D01*
X150445204Y-103485600D01*
X150463954Y-103699916D01*
X150519635Y-103907720D01*
X150610555Y-104102698D01*
X150733951Y-104278926D01*
X150886074Y-104431049D01*
X151062302Y-104554445D01*
X151257280Y-104645365D01*
X151259383Y-104645928D01*
X151259387Y-104645930D01*
X151462982Y-104700483D01*
X151462985Y-104700483D01*
X151465084Y-104701046D01*
X151679400Y-104719796D01*
X151893716Y-104701046D01*
X151895815Y-104700483D01*
X151895818Y-104700483D01*
X152099413Y-104645930D01*
X152099417Y-104645928D01*
X152101520Y-104645365D01*
X152296498Y-104554445D01*
X152472726Y-104431049D01*
X152624849Y-104278926D01*
X152748245Y-104102698D01*
X152839165Y-103907720D01*
X152894846Y-103699916D01*
X152913596Y-103485600D01*
X152894846Y-103271284D01*
X152839165Y-103063480D01*
X152748245Y-102868502D01*
X152624849Y-102692274D01*
X152472726Y-102540151D01*
X152296498Y-102416755D01*
X152101520Y-102325835D01*
X152099417Y-102325272D01*
X152099413Y-102325270D01*
X151895818Y-102270717D01*
X151895815Y-102270717D01*
X151893716Y-102270154D01*
X151679400Y-102251404D01*
X151465084Y-102270154D01*
X151462985Y-102270717D01*
X151462982Y-102270717D01*
X151259387Y-102325270D01*
X151259383Y-102325272D01*
X151257280Y-102325835D01*
X151062302Y-102416755D01*
X150886074Y-102540151D01*
X150733951Y-102692274D01*
X150610555Y-102868502D01*
X150519635Y-103063480D01*
X150463954Y-103271284D01*
X150445204Y-103485600D01*
X114380820Y-103485600D01*
X114387267Y-98189496D01*
X129388729Y-98189496D01*
X129389058Y-98192476D01*
X129389058Y-98192479D01*
X129391195Y-98211830D01*
X129406113Y-98346953D01*
X129460553Y-98495719D01*
X129548908Y-98627205D01*
X129666076Y-98733819D01*
X129805293Y-98809408D01*
X129808193Y-98810169D01*
X129808196Y-98810170D01*
X129955620Y-98848846D01*
X129955623Y-98848846D01*
X129958522Y-98849607D01*
X130027987Y-98850698D01*
X130113915Y-98852048D01*
X130113916Y-98852048D01*
X130116916Y-98852095D01*
X130130818Y-98848911D01*
X130168398Y-98855269D01*
X130177147Y-98862241D01*
X131081175Y-99766269D01*
X131095761Y-99801483D01*
X131092359Y-99819573D01*
X131046406Y-99937437D01*
X131046014Y-99940411D01*
X131046014Y-99940413D01*
X131045524Y-99944133D01*
X131025729Y-100094496D01*
X131026058Y-100097476D01*
X131026058Y-100097479D01*
X131028195Y-100116830D01*
X131043113Y-100251953D01*
X131097553Y-100400719D01*
X131185908Y-100532205D01*
X131303076Y-100638819D01*
X131442293Y-100714408D01*
X131445193Y-100715169D01*
X131445196Y-100715170D01*
X131592620Y-100753846D01*
X131592623Y-100753846D01*
X131595522Y-100754607D01*
X131664987Y-100755698D01*
X131750915Y-100757048D01*
X131750916Y-100757048D01*
X131753916Y-100757095D01*
X131756841Y-100756425D01*
X131756842Y-100756425D01*
X131805800Y-100745212D01*
X131908332Y-100721729D01*
X131911012Y-100720381D01*
X131911015Y-100720380D01*
X132040907Y-100655052D01*
X152661822Y-100655052D01*
X152661971Y-100657328D01*
X152661971Y-100657333D01*
X152668297Y-100753846D01*
X152675789Y-100868156D01*
X152728358Y-101075145D01*
X152817767Y-101269089D01*
X152941023Y-101443492D01*
X152942657Y-101445083D01*
X152942658Y-101445085D01*
X153092359Y-101590917D01*
X153092363Y-101590920D01*
X153093997Y-101592512D01*
X153095897Y-101593781D01*
X153095900Y-101593784D01*
X153269668Y-101709892D01*
X153271566Y-101711160D01*
X153365895Y-101751687D01*
X153465684Y-101794560D01*
X153465686Y-101794561D01*
X153467784Y-101795462D01*
X153470010Y-101795966D01*
X153470014Y-101795967D01*
X153673850Y-101842090D01*
X153673854Y-101842091D01*
X153676079Y-101842594D01*
X153678357Y-101842684D01*
X153678361Y-101842684D01*
X153771759Y-101846354D01*
X153889475Y-101850979D01*
X153891728Y-101850652D01*
X153891734Y-101850652D01*
X154098574Y-101820661D01*
X154098579Y-101820660D01*
X154100826Y-101820334D01*
X154102981Y-101819602D01*
X154102983Y-101819602D01*
X154300885Y-101752423D01*
X154300886Y-101752423D01*
X154303053Y-101751687D01*
X154305053Y-101750567D01*
X154487390Y-101648454D01*
X154487392Y-101648452D01*
X154489384Y-101647337D01*
X154553775Y-101593784D01*
X154651819Y-101512241D01*
X154653578Y-101510778D01*
X154655041Y-101509019D01*
X154788676Y-101348341D01*
X154788677Y-101348339D01*
X154790137Y-101346584D01*
X154834696Y-101267019D01*
X154893367Y-101162253D01*
X154894487Y-101160253D01*
X154963134Y-100958026D01*
X154993779Y-100746675D01*
X154995378Y-100685600D01*
X154975837Y-100472935D01*
X154966772Y-100440790D01*
X154918488Y-100269589D01*
X154918487Y-100269585D01*
X154917868Y-100267392D01*
X154823412Y-100075856D01*
X154822045Y-100074026D01*
X154822043Y-100074022D01*
X154722273Y-99940413D01*
X154695634Y-99904739D01*
X154538811Y-99759774D01*
X154512228Y-99743001D01*
X154474288Y-99719063D01*
X154358197Y-99645815D01*
X154159840Y-99566678D01*
X153950382Y-99525015D01*
X153948101Y-99524985D01*
X153948100Y-99524985D01*
X153823319Y-99523351D01*
X153736840Y-99522219D01*
X153526364Y-99558386D01*
X153326003Y-99632303D01*
X153324038Y-99633472D01*
X153144434Y-99740325D01*
X153144431Y-99740327D01*
X153142468Y-99741495D01*
X152981904Y-99882305D01*
X152980493Y-99884095D01*
X152980490Y-99884098D01*
X152870748Y-100023306D01*
X152849690Y-100050018D01*
X152848628Y-100052036D01*
X152848627Y-100052038D01*
X152814539Y-100116830D01*
X152750253Y-100239017D01*
X152686923Y-100442972D01*
X152686655Y-100445236D01*
X152686654Y-100445241D01*
X152662195Y-100651902D01*
X152661822Y-100655052D01*
X132040907Y-100655052D01*
X132047170Y-100651902D01*
X132047174Y-100651900D01*
X132049855Y-100650551D01*
X132052139Y-100648601D01*
X132052141Y-100648599D01*
X132168032Y-100549618D01*
X132170314Y-100547669D01*
X132262755Y-100419024D01*
X132321842Y-100272041D01*
X132344162Y-100115207D01*
X132344307Y-100101400D01*
X132325276Y-99944133D01*
X132324215Y-99941325D01*
X132324214Y-99941321D01*
X132270341Y-99798754D01*
X132269280Y-99795946D01*
X132179553Y-99665392D01*
X132156630Y-99644968D01*
X132063515Y-99562007D01*
X132061275Y-99560011D01*
X132058624Y-99558607D01*
X132058622Y-99558606D01*
X131923929Y-99487290D01*
X131921274Y-99485884D01*
X131871729Y-99473439D01*
X131848647Y-99460353D01*
X130711219Y-98322925D01*
X130696633Y-98287711D01*
X130697130Y-98280694D01*
X130706931Y-98211830D01*
X130707162Y-98210207D01*
X130707307Y-98196400D01*
X130688276Y-98039133D01*
X130687215Y-98036325D01*
X130687214Y-98036321D01*
X130633341Y-97893754D01*
X130632280Y-97890946D01*
X130628606Y-97885600D01*
X150445204Y-97885600D01*
X150463954Y-98099916D01*
X150464517Y-98102015D01*
X150464517Y-98102018D01*
X150518995Y-98305330D01*
X150519635Y-98307720D01*
X150610555Y-98502698D01*
X150733951Y-98678926D01*
X150886074Y-98831049D01*
X151062302Y-98954445D01*
X151257280Y-99045365D01*
X151259383Y-99045928D01*
X151259387Y-99045930D01*
X151462982Y-99100483D01*
X151462985Y-99100483D01*
X151465084Y-99101046D01*
X151679400Y-99119796D01*
X151893716Y-99101046D01*
X151895815Y-99100483D01*
X151895818Y-99100483D01*
X152099413Y-99045930D01*
X152099417Y-99045928D01*
X152101520Y-99045365D01*
X152296498Y-98954445D01*
X152472726Y-98831049D01*
X152624849Y-98678926D01*
X152748245Y-98502698D01*
X152839165Y-98307720D01*
X152839806Y-98305330D01*
X152894283Y-98102018D01*
X152894283Y-98102015D01*
X152894846Y-98099916D01*
X152913596Y-97885600D01*
X152894846Y-97671284D01*
X152894283Y-97669182D01*
X152839730Y-97465587D01*
X152839728Y-97465583D01*
X152839165Y-97463480D01*
X152748245Y-97268502D01*
X152624849Y-97092274D01*
X152472726Y-96940151D01*
X152296498Y-96816755D01*
X152101520Y-96725835D01*
X152099417Y-96725272D01*
X152099413Y-96725270D01*
X151895818Y-96670717D01*
X151895815Y-96670717D01*
X151893716Y-96670154D01*
X151679400Y-96651404D01*
X151465084Y-96670154D01*
X151462985Y-96670717D01*
X151462982Y-96670717D01*
X151259387Y-96725270D01*
X151259383Y-96725272D01*
X151257280Y-96725835D01*
X151062302Y-96816755D01*
X150886074Y-96940151D01*
X150733951Y-97092274D01*
X150610555Y-97268502D01*
X150519635Y-97463480D01*
X150519072Y-97465583D01*
X150519070Y-97465587D01*
X150464517Y-97669182D01*
X150463954Y-97671284D01*
X150445204Y-97885600D01*
X130628606Y-97885600D01*
X130542553Y-97760392D01*
X130536769Y-97755238D01*
X130444968Y-97673448D01*
X130424275Y-97655011D01*
X130421624Y-97653607D01*
X130421622Y-97653606D01*
X130286929Y-97582290D01*
X130284274Y-97580884D01*
X130130633Y-97542292D01*
X130127629Y-97542276D01*
X130127627Y-97542276D01*
X130053748Y-97541889D01*
X129972221Y-97541462D01*
X129818184Y-97578443D01*
X129677414Y-97651100D01*
X129558039Y-97755238D01*
X129556316Y-97757690D01*
X129556313Y-97757693D01*
X129552679Y-97762864D01*
X129466950Y-97884844D01*
X129465861Y-97887637D01*
X129465860Y-97887639D01*
X129464571Y-97890946D01*
X129409406Y-98032437D01*
X129409014Y-98035411D01*
X129409014Y-98035413D01*
X129408524Y-98039133D01*
X129388729Y-98189496D01*
X114387267Y-98189496D01*
X114402067Y-86031845D01*
X114402863Y-86023035D01*
X114407047Y-85999926D01*
X114404176Y-85986688D01*
X114403084Y-85974168D01*
X114409364Y-85815163D01*
X114413997Y-85697862D01*
X114414539Y-85692246D01*
X114428927Y-85598893D01*
X114432979Y-85572600D01*
X115632117Y-85572600D01*
X115652011Y-85799989D01*
X115657171Y-85819247D01*
X115707981Y-86008874D01*
X115711088Y-86020470D01*
X115807554Y-86227341D01*
X115938478Y-86414319D01*
X116099881Y-86575722D01*
X116286859Y-86706646D01*
X116493730Y-86803112D01*
X116495832Y-86803675D01*
X116495837Y-86803677D01*
X116635192Y-86841016D01*
X116714211Y-86862189D01*
X116884644Y-86877100D01*
X116998556Y-86877100D01*
X117168989Y-86862189D01*
X117248008Y-86841016D01*
X117387363Y-86803677D01*
X117387368Y-86803675D01*
X117389470Y-86803112D01*
X117596341Y-86706646D01*
X117783319Y-86575722D01*
X117944722Y-86414319D01*
X118075646Y-86227342D01*
X118172112Y-86020470D01*
X118175220Y-86008874D01*
X118226029Y-85819247D01*
X118231189Y-85799989D01*
X118251083Y-85572600D01*
X118233305Y-85369400D01*
X156500717Y-85369400D01*
X156520611Y-85596789D01*
X156521175Y-85598893D01*
X156575058Y-85799989D01*
X156579688Y-85817270D01*
X156676154Y-86024141D01*
X156807078Y-86211119D01*
X156968481Y-86372522D01*
X157155459Y-86503446D01*
X157362330Y-86599912D01*
X157364432Y-86600475D01*
X157364437Y-86600477D01*
X157503792Y-86637816D01*
X157582811Y-86658989D01*
X157753244Y-86673900D01*
X157867156Y-86673900D01*
X158037589Y-86658989D01*
X158116608Y-86637816D01*
X158255963Y-86600477D01*
X158255968Y-86600475D01*
X158258070Y-86599912D01*
X158464941Y-86503446D01*
X158651919Y-86372522D01*
X158813322Y-86211119D01*
X158944246Y-86024142D01*
X159040712Y-85817270D01*
X159045343Y-85799989D01*
X159099225Y-85598893D01*
X159099789Y-85596789D01*
X159119683Y-85369400D01*
X159099789Y-85142011D01*
X159063108Y-85005113D01*
X159041277Y-84923637D01*
X159041275Y-84923632D01*
X159040712Y-84921530D01*
X158944246Y-84714659D01*
X158813322Y-84527681D01*
X158651919Y-84366278D01*
X158464941Y-84235354D01*
X158258070Y-84138888D01*
X158255968Y-84138325D01*
X158255963Y-84138323D01*
X158098952Y-84096253D01*
X158037589Y-84079811D01*
X157867156Y-84064900D01*
X157753244Y-84064900D01*
X157582811Y-84079811D01*
X157521448Y-84096253D01*
X157364437Y-84138323D01*
X157364432Y-84138325D01*
X157362330Y-84138888D01*
X157155459Y-84235354D01*
X156968481Y-84366278D01*
X156807078Y-84527681D01*
X156676154Y-84714658D01*
X156579688Y-84921530D01*
X156579125Y-84923632D01*
X156579123Y-84923637D01*
X156557292Y-85005113D01*
X156520611Y-85142011D01*
X156500717Y-85369400D01*
X118233305Y-85369400D01*
X118231189Y-85345211D01*
X118199136Y-85225587D01*
X118172677Y-85126837D01*
X118172675Y-85126832D01*
X118172112Y-85124730D01*
X118075646Y-84917859D01*
X117944722Y-84730881D01*
X117783319Y-84569478D01*
X117596341Y-84438554D01*
X117389470Y-84342088D01*
X117387368Y-84341525D01*
X117387363Y-84341523D01*
X117248008Y-84304184D01*
X117168989Y-84283011D01*
X116998556Y-84268100D01*
X116884644Y-84268100D01*
X116714211Y-84283011D01*
X116635192Y-84304184D01*
X116495837Y-84341523D01*
X116495832Y-84341525D01*
X116493730Y-84342088D01*
X116286859Y-84438554D01*
X116099881Y-84569478D01*
X115938478Y-84730881D01*
X115807554Y-84917858D01*
X115711088Y-85124730D01*
X115710525Y-85126832D01*
X115710523Y-85126837D01*
X115684064Y-85225587D01*
X115652011Y-85345211D01*
X115632117Y-85572600D01*
X114432979Y-85572600D01*
X114460172Y-85396171D01*
X114461342Y-85390671D01*
X114540195Y-85101665D01*
X114541988Y-85096311D01*
X114653043Y-84818103D01*
X114655430Y-84812986D01*
X114797269Y-84549132D01*
X114800220Y-84544319D01*
X114940958Y-84341523D01*
X114971009Y-84298221D01*
X114974485Y-84293774D01*
X115172036Y-84068590D01*
X115175992Y-84064565D01*
X115190978Y-84050958D01*
X115397772Y-83863184D01*
X115402161Y-83859632D01*
X115645299Y-83684659D01*
X115650056Y-83681629D01*
X115911453Y-83535294D01*
X115916510Y-83532829D01*
X116192793Y-83417024D01*
X116198114Y-83415141D01*
X116342042Y-83373213D01*
X116485719Y-83331358D01*
X116491220Y-83330089D01*
X116786458Y-83279402D01*
X116792068Y-83278764D01*
X116852165Y-83275360D01*
X117067997Y-83263134D01*
X117080528Y-83264012D01*
X117093965Y-83266686D01*
X117114892Y-83262526D01*
X117124382Y-83261570D01*
X135400056Y-83182062D01*
X157933074Y-83084032D01*
X157943005Y-83084989D01*
G37*
%TD.AperFunction*%
%TD*%
M02*
